<svg width="86" height="70" viewBox="0 0 86 70" fill="none" xmlns="http://www.w3.org/2000/svg">
<path d="M56.4762 15.155H57.5562C60.7639 15.1789 63.9221 15.9486 66.7811 17.4034C69.6401 18.8582 72.1215 20.9581 74.0291 23.5371C76.6651 26.9633 78.1282 31.1471 78.202 35.4694V37.2998C78.202 38.7639 78.0741 39.4775 77.8363 39.4775H42.6403V39.6054C43.2757 42.6358 44.8978 45.3702 47.2527 47.3806C49.8184 49.7834 53.1996 51.1241 56.7148 51.1324H57.319C59.5165 51.1059 61.6807 50.5918 63.6554 49.6271C65.63 48.6624 67.3658 47.2712 68.7373 45.5541H76.0579C73.899 50.3352 69.9591 54.0847 65.077 56.0044C62.5713 57.0244 59.8945 57.5586 57.1892 57.5786H56.9329C49.4291 57.5786 43.3287 54.0951 38.6315 47.1282C36.8218 43.7992 35.8898 40.0642 35.9234 36.2752C35.9234 28.8813 39.3214 22.854 46.1174 18.1933C49.2472 16.2964 52.8177 15.2491 56.4762 15.155ZM42.639 33.1269L71.5186 33.237V33.1269C70.6697 29.412 68.4635 26.1483 65.3327 23.9759C63.0126 22.4683 60.3232 21.6264 57.5575 21.5419H56.3497C51.9209 21.5419 48.0349 23.7319 44.6915 28.1119C43.7239 29.6525 43.0304 31.349 42.6417 33.1263L42.639 33.1269Z" fill="black" stroke="black" stroke-width="2"/>
<path d="M22.9616 58.1268H22.248C16.9351 58.0507 11.8352 56.0252 7.91795 52.4351V57.9259C7.92054 57.9578 7.91616 57.9898 7.90512 58.0199C7.89408 58.0499 7.87664 58.0772 7.85402 58.0998C7.83139 58.1224 7.80412 58.1399 7.77408 58.1509C7.74405 58.1619 7.71198 58.1663 7.68008 58.1637H1.23787C1.07314 58.1637 1 58.1637 1 57.9259V15.4114C1 15.2466 1 15.1551 1.23787 15.1551H7.68008C7.84481 15.1551 7.91795 15.2466 7.91795 15.4114V20.9021C11.6672 17.3556 16.5959 15.3217 21.7552 15.192H23.5836C28.855 15.192 33.9124 17.6321 38.7558 22.5125C42.0257 26.3636 43.8679 31.2243 43.9718 36.2752V36.8973C43.9643 40.2781 43.144 43.6075 41.5801 46.6048C40.0161 49.6021 37.7543 52.1794 34.9855 54.1193C31.4929 56.6751 27.2892 58.0762 22.9616 58.1268ZM37.0532 37.0073V36.2752C37.0532 31.1871 34.5823 27.1242 29.641 23.9035C27.6883 22.7605 25.4779 22.1308 23.216 22.073H22.0102C19.7868 22.0968 17.6015 22.6525 15.6369 23.6937C13.6723 24.7349 11.9855 26.2314 10.7177 28.0579C9.01618 30.3877 8.08233 33.1895 8.04578 36.0743V37.2083C8.04578 42.589 10.864 46.8713 16.5379 50.0196C18.3891 50.7719 20.3617 51.1812 22.3594 51.2273H22.7257C26.4906 51.1843 30.091 49.6781 32.765 47.0276C35.4391 44.377 36.9769 40.7901 37.0532 37.0257V37.0073Z" fill="black" stroke="black" stroke-width="2"/>
<rect x="81.3876" width="4.6124" height="69.845" rx="2.3062" fill="#C4C4C4"/>
</svg>
