<svg width="19" height="16" viewBox="0 0 19 16" fill="none" xmlns="http://www.w3.org/2000/svg">
<path d="M12.5533 3.72781H12.7891C13.4895 3.73303 14.1791 3.9011 14.8034 4.21876C15.4277 4.53642 15.9695 4.99495 16.386 5.55809C16.9616 6.30624 17.2811 7.21979 17.2972 8.16359V8.56328C17.2972 8.88298 17.2693 9.0388 17.2174 9.0388H9.53211V9.06671C9.67085 9.72844 10.025 10.3255 10.5393 10.7645C11.0995 11.2891 11.8378 11.5819 12.6054 11.5837H12.7373C13.2171 11.5779 13.6897 11.4657 14.1209 11.255C14.5521 11.0444 14.9311 10.7406 15.2306 10.3657H16.829C16.3576 11.4096 15.4973 12.2284 14.4313 12.6476C13.8842 12.8703 13.2997 12.9869 12.7089 12.9913H12.653C11.0145 12.9913 9.68241 12.2307 8.65675 10.7094C8.26159 9.98247 8.05808 9.16689 8.06541 8.33955C8.06541 6.72504 8.80739 5.40894 10.2914 4.39124C10.9747 3.97704 11.7544 3.74836 12.5533 3.72781V3.72781ZM9.53182 7.6521L15.8379 7.67613V7.6521C15.6525 6.84092 15.1708 6.12827 14.4871 5.65392C13.9805 5.32472 13.3933 5.14088 12.7894 5.12243H12.5256C11.5586 5.12243 10.71 5.60063 9.98 6.55704C9.76871 6.89344 9.61727 7.26388 9.53239 7.65196L9.53182 7.6521Z" fill="black" stroke="black" stroke-width="0.436714"/>
<path d="M5.23513 13.111H5.07931C3.91919 13.0944 2.80561 12.6521 1.95024 11.8682V13.0671C1.95081 13.0741 1.94985 13.0811 1.94744 13.0876C1.94503 13.0942 1.94122 13.1001 1.93628 13.1051C1.93134 13.11 1.92539 13.1138 1.91883 13.1162C1.91227 13.1187 1.90527 13.1196 1.8983 13.119H0.491601C0.455631 13.119 0.439661 13.119 0.439661 13.0671V3.78377C0.439661 3.7478 0.439661 3.7278 0.491601 3.7278H1.8983C1.93427 3.7278 1.95024 3.7478 1.95024 3.78377V4.98271C2.76891 4.20831 3.84514 3.76418 4.97169 3.73586H5.37096C6.52198 3.73586 7.6263 4.26869 8.6839 5.33435C9.39791 6.17526 9.80015 7.23663 9.82285 8.33954V8.47536C9.82122 9.21358 9.6421 9.94059 9.3006 10.5951C8.9591 11.2496 8.46522 11.8123 7.86063 12.2359C7.09799 12.794 6.18009 13.0999 5.23513 13.111ZM8.31212 8.49939V8.33954C8.31212 7.22851 7.77258 6.34136 6.69363 5.63808C6.26723 5.38851 5.78457 5.251 5.29067 5.23838H5.02737C4.54189 5.24357 4.06471 5.36492 3.63573 5.59227C3.20674 5.81963 2.83843 6.14639 2.56158 6.54523C2.19005 7.05396 1.98614 7.66575 1.97815 8.29566V8.54327C1.97815 9.71819 2.59352 10.6533 3.83246 11.3407C4.23668 11.505 4.66742 11.5944 5.10363 11.6044H5.18363C6.0057 11.595 6.79188 11.2662 7.37577 10.6874C7.95967 10.1086 8.29547 9.32538 8.31212 8.50342V8.49939Z" fill="black" stroke="black" stroke-width="0.436714"/>
<rect x="17.9929" y="0.41861" width="1.00715" height="15.2511" rx="0.503575" fill="#C4C4C4"/>
</svg>
