<svg width="58" height="47" viewBox="0 0 58 47" fill="none" xmlns="http://www.w3.org/2000/svg">
<path d="M38.249 10.6229H38.9674C41.101 10.6388 43.2017 11.1508 45.1033 12.1184C47.005 13.0861 48.6555 14.4828 49.9243 16.1982C51.6776 18.4772 52.6508 21.26 52.6999 24.135V25.3525C52.6999 26.3264 52.6149 26.801 52.4567 26.801H29.0461V26.8861C29.4687 28.9018 30.5477 30.7205 32.114 32.0577C33.8206 33.6559 36.0696 34.5477 38.4077 34.5533H38.8096C40.2713 34.5356 41.7108 34.1937 43.0242 33.552C44.3377 32.9103 45.4922 31.985 46.4045 30.8428H51.2738C49.8378 34.023 47.2172 36.517 43.9699 37.7939C42.3032 38.4723 40.5227 38.8277 38.7233 38.8409H38.5528C33.5617 38.8409 29.504 36.5239 26.3796 31.8899C25.1759 29.6756 24.556 27.1912 24.5783 24.671C24.5783 19.753 26.8385 15.7439 31.3589 12.6438C33.4406 11.3821 35.8156 10.6855 38.249 10.6229V10.6229ZM29.0452 22.5769L48.2545 22.6501V22.5769C47.6898 20.106 46.2224 17.9351 44.1399 16.4901C42.5967 15.4873 40.8078 14.9273 38.9683 14.8711H38.1649C35.2191 14.8711 32.6343 16.3278 30.4105 19.2412C29.7668 20.2659 29.3055 21.3943 29.047 22.5765L29.0452 22.5769Z" fill="black" stroke="white" stroke-width="1.3303"/>
<path d="M15.9568 39.2057H15.4822C11.9482 39.1551 8.5561 37.8078 5.95051 35.4199V39.0721C5.95223 39.0933 5.94932 39.1146 5.94198 39.1346C5.93463 39.1546 5.92304 39.1727 5.90799 39.1878C5.89294 39.2028 5.87479 39.2144 5.85482 39.2218C5.83484 39.2291 5.81351 39.232 5.79229 39.2303H1.50726C1.39769 39.2303 1.34904 39.2303 1.34904 39.0721V10.7936C1.34904 10.684 1.34904 10.6231 1.50726 10.6231H5.79229C5.90186 10.6231 5.95051 10.684 5.95051 10.7936V14.4457C8.44429 12.0868 11.7227 10.7339 15.1543 10.6476H16.3705C19.8768 10.6476 23.2407 12.2707 26.4623 15.5169C28.6373 18.0784 29.8626 21.3115 29.9317 24.6712V25.0849C29.9267 27.3336 29.3811 29.5482 28.3408 31.5419C27.3006 33.5355 25.7962 35.2498 23.9545 36.5402C21.6314 38.2401 18.8353 39.1721 15.9568 39.2057ZM25.3298 25.1581V24.6712C25.3298 21.2868 23.6863 18.5844 20.3996 16.4421C19.1007 15.6819 17.6305 15.263 16.126 15.2246H15.3239C13.8451 15.2404 12.3915 15.61 11.0848 16.3026C9.77801 16.9951 8.65607 17.9905 7.81275 19.2054C6.681 20.7551 6.05985 22.6187 6.03553 24.5375V25.2918C6.03553 28.8707 7.91004 31.7191 11.684 33.8132C12.9154 34.3136 14.2275 34.5858 15.5562 34.6166H15.7999C18.3041 34.5879 20.6989 33.5861 22.4775 31.8231C24.2562 30.0601 25.2791 27.6742 25.3298 25.1704V25.1581Z" fill="black" stroke="white" stroke-width="1.3303"/>
<rect x="54.8189" y="0.542664" width="3.06794" height="46.4573" rx="1.53397" fill="#C4C4C4"/>
</svg>
