<svg width="24" height="24" viewBox="0 0 24 24" fill="none" xmlns="http://www.w3.org/2000/svg">
<g clip-path="url(#clip0)">
<path d="M11.916 23.842C9.55825 23.841 7.25374 23.1409 5.2939 21.8302C3.33405 20.5195 1.80688 18.657 0.905525 16.4784C0.00416636 14.2997 -0.230904 11.9027 0.230041 9.59043C0.690985 7.27818 1.82724 5.15453 3.49512 3.48805C5.163 1.82157 7.2876 0.687094 9.60024 0.22809C11.9129 -0.230915 14.3097 0.00616598 16.4876 0.909352C18.6655 1.81254 20.5267 3.34126 21.8357 5.30221C23.1448 7.26316 23.843 9.56825 23.842 11.926C23.8388 15.0871 22.581 18.1176 20.3448 20.3519C18.1087 22.5862 15.0771 23.8415 11.916 23.842V23.842ZM14.896 21.466C16.7021 20.9028 18.3115 19.8392 19.5376 18.3984C20.7637 16.9577 21.5562 15.1989 21.8233 13.3259C22.0903 11.453 21.8209 9.54279 21.0463 7.81678C20.2717 6.09077 19.0237 4.61973 17.4469 3.57426C15.8702 2.52879 14.0294 1.95174 12.138 1.91004C10.2466 1.86834 8.38214 2.3637 6.76086 3.33867C5.13958 4.31363 3.82792 5.72825 2.97801 7.41844C2.1281 9.10863 1.77477 11.0051 1.959 12.888C2.16411 15.2292 3.20863 17.4173 4.9 19.049C6.05594 20.2101 7.48869 21.0574 9.063 21.511C9.063 21.399 9.063 21.321 9.063 21.243C9.063 20.637 9.053 20.031 9.078 19.426C9.08006 19.1286 9.14134 18.8345 9.25826 18.561C9.37519 18.2875 9.54541 18.04 9.759 17.833C9.825 17.77 9.896 17.711 9.987 17.633C9.904 17.618 9.86 17.608 9.816 17.603C8.99126 17.5272 8.18347 17.3227 7.422 16.997C6.89681 16.7793 6.42127 16.4573 6.0242 16.0505C5.62714 15.6436 5.3168 15.1603 5.112 14.63C4.83057 13.8647 4.68079 13.0573 4.669 12.242C4.6242 11.6586 4.69562 11.072 4.87912 10.5164C5.06262 9.96073 5.35455 9.44702 5.738 9.005C5.77435 8.96929 5.79876 8.92322 5.80789 8.87309C5.81702 8.82296 5.81042 8.77124 5.789 8.72501C5.50017 7.81645 5.54629 6.83449 5.919 5.957C5.93673 5.92274 5.96242 5.89323 5.99391 5.87096C6.02541 5.84868 6.06179 5.8343 6.1 5.829C6.33495 5.82652 6.56953 5.8483 6.8 5.894C7.57186 6.10935 8.30015 6.45793 8.952 6.924C9.00172 6.95882 9.05872 6.98187 9.11866 6.9914C9.17861 7.00093 9.23994 6.99669 9.298 6.979C11.0526 6.52365 12.8944 6.52365 14.649 6.979C14.7134 6.99779 14.7813 7.00125 14.8473 6.98909C14.9133 6.97694 14.9755 6.94951 15.029 6.909C15.6781 6.44861 16.4032 6.10605 17.171 5.897C17.3992 5.8522 17.6315 5.83142 17.864 5.835C17.8966 5.83934 17.9277 5.8514 17.9546 5.87019C17.9816 5.88898 18.0037 5.91394 18.019 5.943C18.3897 6.80696 18.4442 7.77386 18.173 8.674C18.1451 8.73751 18.137 8.80798 18.1499 8.87615C18.1627 8.94432 18.1959 9.00702 18.245 9.056C18.8969 9.80563 19.2609 10.7627 19.272 11.756C19.3023 12.597 19.199 13.4374 18.966 14.246C18.7117 15.1363 18.1721 15.9183 17.43 16.472C16.6412 17.0202 15.735 17.3761 14.784 17.511C14.52 17.561 14.253 17.591 14.003 17.628C14.2042 17.8498 14.3919 18.0836 14.565 18.328C14.8086 18.7626 14.9231 19.2576 14.895 19.755C14.9 20.318 14.9 20.883 14.9 21.466H14.896Z" fill="white"/>
</g>
<defs>
<clipPath id="clip0">
<rect width="23.842" height="23.842" fill="white"/>
</clipPath>
</defs>
</svg>
