<svg width="634" height="791" viewBox="0 0 634 791" fill="none" xmlns="http://www.w3.org/2000/svg">
<path d="M304.13 299.63H150.1V537.08H304.13V299.63Z" fill="#221563"/>
<path d="M304.53 47.99H150.5V285.44H304.53V47.99Z" fill="#221563"/>
<path d="M150.5 87.82L304.53 241.85V47.99H150.5V87.82Z" fill="#0D0830"/>
<path d="M472.99 47.99H318.95V285.44H472.99V47.99Z" fill="#221563"/>
<path d="M318.95 47.99V256.27L348.12 285.44H472.99V47.99H318.95Z" fill="#0D0830"/>
<path d="M472.99 299.29H318.95V536.74H472.99V299.29Z" fill="#221563"/>
<path d="M472.99 410.31V299.29H361.97L472.99 410.31Z" fill="#0D0830"/>
<path d="M481.36 191.99C480.86 193.39 480.28 194.76 479.61 196.07C479.28 196.72 478.93 197.36 478.56 197.98C472.97 207.49 462.92 214.07 451.27 214.89C450.47 214.94 449.66 214.97 448.85 214.97C436.19 214.97 425.13 208.15 419.14 197.98C418.02 196.09 417.08 194.09 416.34 191.99H481.36Z" fill="#D67525"/>
<path d="M481.36 191.99C480.86 193.39 480.28 194.76 479.61 196.07C479.28 196.72 478.93 197.36 478.56 197.98C472.97 207.49 462.92 214.07 451.27 214.89C440.98 212.89 432.63 206.48 427.84 197.98C426.77 196.08 425.87 194.08 425.17 191.99H481.36Z" fill="#F9A34E"/>
<path d="M493.82 194.23H403.87C403.87 186.99 405.58 180.15 408.62 174.09C411.99 167.39 416.98 161.64 423.08 157.37C424.25 156.55 425.45 155.78 426.7 155.08C426.89 154.97 427.08 154.87 427.27 154.76C428.66 154 430.09 153.31 431.56 152.69C431.87 152.56 432.18 152.44 432.49 152.32C432.96 152.13 433.44 151.96 433.92 151.79C434.23 151.68 434.54 151.57 434.85 151.47C435.19 151.36 435.54 151.25 435.89 151.14C436.23 151.04 436.57 150.94 436.92 150.85C437.24 150.76 437.56 150.68 437.88 150.59C438.01 150.56 438.14 150.53 438.28 150.5C438.59 150.42 438.9 150.35 439.2 150.29C439.59 150.2 439.97 150.12 440.36 150.05C441.34 149.86 442.33 149.71 443.33 149.59C443.64 149.55 443.95 149.51 444.26 149.49C444.54 149.45 444.82 149.43 445.1 149.41C445.41 149.38 445.72 149.36 446.03 149.34C446.35 149.32 446.67 149.3 446.99 149.29C447.24 149.28 447.49 149.27 447.75 149.27C448.11 149.25 448.48 149.25 448.85 149.25C449.16 149.25 449.48 149.25 449.79 149.26C450.07 149.27 450.35 149.27 450.62 149.29C451 149.3 451.37 149.32 451.74 149.35C452.03 149.36 452.31 149.38 452.6 149.41C453.35 149.47 454.09 149.55 454.82 149.65C454.87 149.65 454.92 149.66 454.96 149.67C455.3 149.71 455.64 149.76 455.98 149.82C457.1 149.99 458.2 150.21 459.28 150.47C460.01 150.64 460.72 150.83 461.43 151.04C461.78 151.14 462.14 151.25 462.49 151.36C465.21 152.22 467.82 153.34 470.28 154.68C470.6 154.85 470.92 155.03 471.23 155.21C471.62 155.43 472.01 155.66 472.39 155.9C473 156.28 473.61 156.67 474.2 157.08C474.5 157.28 474.8 157.49 475.09 157.7C475.38 157.91 475.67 158.12 475.96 158.34C477.39 159.42 478.75 160.59 480.05 161.84C480.31 162.09 480.57 162.34 480.82 162.6C481.07 162.86 481.32 163.11 481.57 163.38C481.82 163.64 482.06 163.9 482.3 164.17C482.54 164.44 482.78 164.71 483.01 164.98C483.43 165.46 483.83 165.96 484.23 166.46C484.23 166.46 484.24 166.47 484.24 166.48C484.64 166.99 485.03 167.51 485.41 168.04C485.45 168.09 485.49 168.14 485.52 168.19C485.67 168.4 485.81 168.61 485.95 168.82C486.01 168.9 486.07 168.98 486.12 169.06C486.24 169.22 486.35 169.39 486.45 169.55C486.49 169.61 486.53 169.67 486.56 169.72C486.9 170.24 487.23 170.76 487.54 171.3C487.87 171.85 488.19 172.42 488.5 173C488.77 173.49 489.02 173.99 489.27 174.5C489.35 174.66 489.43 174.82 489.5 174.98C489.73 175.47 489.96 175.96 490.17 176.45C490.21 176.54 490.25 176.63 490.28 176.72C490.49 177.22 490.7 177.72 490.89 178.23C491.61 180.12 492.21 182.08 492.67 184.08C492.81 184.69 492.94 185.3 493.05 185.92C493.31 187.29 493.5 188.68 493.63 190.09C493.66 190.43 493.69 190.77 493.71 191.11C493.78 192.14 493.82 193.18 493.82 194.23Z" fill="#163E6D"/>
<path d="M493.71 191.03C493.69 190.69 493.66 190.35 493.63 190.01C493.5 188.6 493.31 187.21 493.05 185.84C492.94 185.22 492.81 184.61 492.67 184C492.21 182 491.61 180.04 490.89 178.15C490.7 177.64 490.49 177.14 490.28 176.64C490.25 176.55 490.21 176.46 490.17 176.37C489.96 175.88 489.73 175.39 489.5 174.9C489.43 174.74 489.35 174.58 489.27 174.42C489.02 173.91 488.77 173.41 488.5 172.92C488.19 172.34 487.87 171.77 487.54 171.22C487.23 170.68 486.9 170.16 486.56 169.64C486.53 169.59 486.49 169.53 486.45 169.47C486.35 169.31 486.24 169.14 486.12 168.98C486.07 168.89 486.01 168.81 485.95 168.72C485.81 168.51 485.66 168.31 485.52 168.11C485.49 168.06 485.45 168.01 485.41 167.96C485.03 167.43 484.64 166.91 484.24 166.4C484.24 166.39 484.23 166.38 484.23 166.38C483.83 165.88 483.43 165.38 483.01 164.9C482.78 164.63 482.54 164.36 482.3 164.09C482.06 163.82 481.82 163.56 481.57 163.3C481.32 163.03 481.07 162.78 480.82 162.52C480.57 162.26 480.31 162.01 480.05 161.76C478.75 160.51 477.39 159.34 475.96 158.26C475.67 158.04 475.38 157.83 475.09 157.62C474.8 157.41 474.5 157.2 474.2 157C473.61 156.59 473 156.2 472.39 155.82C472.01 155.58 471.62 155.35 471.23 155.13C470.92 154.95 470.6 154.77 470.28 154.6C467.82 153.26 465.21 152.14 462.49 151.28C462.14 151.17 461.78 151.06 461.43 150.96C460.72 150.75 460.01 150.56 459.28 150.39C458.2 150.13 457.1 149.91 455.98 149.74C455.64 149.68 455.3 149.63 454.96 149.59C454.92 149.58 454.87 149.57 454.82 149.57C454.09 149.47 453.35 149.39 452.6 149.33V13.39H445.1V149.33C444.82 149.35 444.54 149.37 444.26 149.41C443.95 149.43 443.64 149.47 443.33 149.51C442.33 149.63 441.34 149.78 440.36 149.97C439.97 150.04 439.59 150.12 439.2 150.21C438.9 150.27 438.59 150.34 438.28 150.42C438.14 150.45 438.01 150.48 437.88 150.51C437.56 150.6 437.24 150.68 436.92 150.77C436.57 150.86 436.23 150.96 435.89 151.06C435.54 151.17 435.19 151.28 434.85 151.39C434.54 151.49 434.23 151.6 433.92 151.71C433.44 151.88 432.96 152.05 432.49 152.24C432.18 152.36 431.87 152.48 431.56 152.61C430.09 153.23 428.66 153.92 427.27 154.68C427.08 154.79 426.89 154.89 426.7 155C432.43 156.03 438.76 157.58 445.1 159.9C447.61 160.81 450.12 161.84 452.6 163.02C464.76 168.77 476.07 177.81 482.18 192C482.48 192.7 482.77 193.42 483.05 194.15H493.82C493.82 193.1 493.78 192.06 493.71 191.03Z" fill="#0A2056"/>
<path d="M563.56 193.69V176.15H575.94V174.15H546.03V156.19H569.57V154.19H529V156.19H544.03V174.15H518.17V176.15H561.56V193.69H530.49V195.69H589.1V193.69H563.56Z" fill="#212735"/>
<path d="M87.01 251.29V249.29H45.64V231.32H62.37V229.32H21.81V231.32H43.64V249.29H29.24V251.29H61.16V268.83H16.92V270.83H75.54V268.83H63.16V251.29H87.01Z" fill="#212735"/>
<path d="M387.02 595.59V593.59H345.64V575.63H362.38V573.63H321.81V575.63H343.64V593.59H329.25V595.59H361.17V613.13H316.93V615.13H375.55V613.13H363.17V595.59H387.02Z" fill="#212735"/>
<path d="M446 518.3V626.81L431.65 612.46V518.3C431.65 516.33 432.96 514.74 434.57 514.74H443.09C444.71 514.74 446 516.33 446 518.3Z" fill="#100F1E"/>
<path d="M496.19 752.79C496.19 751.15 494.8 749.83 493.09 749.83H470.2L470.23 749.81L446 749.83V626.14L431.65 612.46V749.83H381.71C380 749.83 378.61 751.15 378.61 752.79V756.69C378.61 756.77 378.63 756.83 378.63 756.91H378.61V761.68C378.61 762.07 378.94 762.39 379.36 762.39H495.36C495.82 762.39 496.19 762.04 496.19 761.61V756.92H496.17C496.17 756.84 496.19 756.78 496.19 756.7V752.79Z" fill="#1C1930"/>
<path d="M589.09 493.07V512.69C589.09 515.42 587.27 517.63 585.03 517.63H288.61C286.37 517.63 284.55 515.42 284.55 512.69V492.99C284.59 490.3 286.39 488.14 288.61 488.14H585.03C587.27 488.14 589.09 490.34 589.09 493.07Z" fill="#1C1930"/>
<path d="M589.09 506.81H284.55V510.81H589.09V506.81Z" fill="#100F1E"/>
<path d="M143.8 598.55V660.76C143.8 662.35 142.69 663.65 141.32 663.65H131.41C130.03 663.65 128.91 662.36 128.91 660.76V598.55C128.91 596.94 130.02 595.65 131.41 595.65H141.32C142.69 595.65 143.8 596.95 143.8 598.55Z" fill="#1C1930"/>
<path d="M146.31 666.58H126.27C125.01 666.58 124.05 667.76 124.19 669.09L127.98 704.68L131.12 734C131.23 735.14 132.13 736 133.2 736H140.14C141.21 736 142.12 735.13 142.22 733.97L144.74 707.41L148.39 669.05C148.52 667.73 147.55 666.58 146.31 666.58Z" fill="#1C1930"/>
<path d="M127.87 719.08C124.66 719.59 121.45 720.11 118.24 720.62C111.15 721.75 104.07 722.87 96.9799 724C89.2799 725.23 81.5599 726.47 73.8599 727.71C70.7899 728.21 67.7099 728.71 64.6499 729.21C62.0699 729.62 59.2999 729.87 56.7799 730.58C56.5699 730.65 56.2099 730.94 56.1199 731.15C55.7399 732.05 55.8799 734.91 55.8799 736.01H45.7099C45.6199 735.05 45.6199 734.08 45.6699 733.12C45.7399 731.58 45.5799 730 46.5299 728.67C48.2599 726.27 52.4599 725.56 55.0699 724.65C61.6299 722.38 68.2799 720.39 74.9299 718.4C82.7399 716.08 90.5999 713.84 98.4599 711.64C105.01 709.8 111.57 708 118.13 706.22C120.87 705.48 123.61 704.74 126.36 704.01L127.12 711.61L127.87 719.08Z" fill="#1C1930"/>
<path d="M62.57 750.91C62.61 751.79 62.54 752.66 62.38 753.51C61.42 758.52 57.13 762.38 51.83 762.62C48.34 762.76 45.16 761.29 43 758.88C41.32 757.01 40.25 754.57 40.13 751.88C39.86 745.69 44.66 740.46 50.87 740.19C57.07 739.91 62.3 744.72 62.57 750.91Z" fill="#1C1930"/>
<path d="M147.51 751.02C147.77 757.22 142.96 762.46 136.77 762.73C136.41 762.74 136.06 762.74 135.7 762.72C129.98 762.43 125.33 757.83 125.08 752C124.81 745.81 129.61 740.58 135.82 740.31C140.87 740.08 145.29 743.25 146.89 747.8C147.26 748.8 147.47 749.88 147.51 751.02Z" fill="#1C1930"/>
<path d="M233.03 751.99C232.76 758.18 227.53 762.98 221.34 762.73C220.54 762.7 219.76 762.57 219 762.37C213.97 761.07 210.36 756.41 210.6 751.02C210.87 744.83 216.1 740.03 222.29 740.3C225.26 740.43 227.91 741.7 229.83 743.65C231.93 745.8 233.17 748.77 233.03 751.99Z" fill="#1C1930"/>
<path d="M145.28 719.08C148.49 719.59 151.7 720.11 154.91 720.62C162 721.75 169.08 722.87 176.17 724C183.87 725.23 191.59 726.47 199.29 727.71C202.36 728.21 205.44 728.71 208.5 729.21C211.08 729.62 213.85 729.87 216.37 730.58C216.58 730.65 216.94 730.94 217.03 731.15C217.41 732.05 217.27 734.91 217.27 736.01H227.44C227.53 735.05 227.53 734.08 227.48 733.12C227.41 731.58 227.57 730 226.62 728.67C224.89 726.27 220.69 725.56 218.08 724.65C211.52 722.38 204.87 720.39 198.22 718.4C190.41 716.08 182.55 713.84 174.69 711.64C168.14 709.8 161.58 708 155.03 706.22C152.29 705.48 149.55 704.74 146.8 704.01L146.04 711.61L145.28 719.08Z" fill="#1C1930"/>
<path d="M229.79 581.45C229 582.85 228.18 584.23 227.33 585.6C226.46 587 225.46 588.45 223.88 589.11C222.93 589.51 221.87 589.57 220.83 589.62C216.55 589.84 212.28 590.04 208 590.22C187.8 591.07 167.57 591.49 147.35 591.48C127.12 591.47 106.9 591.04 86.6999 590.18C86.1699 590.16 85.6299 590.14 85.0999 590.11C84.6799 590.09 84.2599 590.07 83.8299 590.05C77.2499 589.7 70.5899 588.97 64.8799 585.99C60.0899 583.48 56.3699 579.53 53.7099 575.01C52.4899 572.94 51.4999 570.75 50.7099 568.52C50.6999 568.5 50.6999 568.47 50.6899 568.45C50.4299 567.72 50.1999 566.98 49.9899 566.25C49.9399 566.1 49.8999 565.95 49.8499 565.8C49.6499 565.09 49.4699 564.37 49.2999 563.65C49.2699 563.49 49.2299 563.33 49.1899 563.17C49.0299 562.44 48.8899 561.71 48.7599 560.97C48.7499 560.88 48.7299 560.79 48.7199 560.7C48.5999 559.96 48.4899 559.22 48.3999 558.49C48.3899 558.42 48.3799 558.36 48.3799 558.3C48.2899 557.52 48.2199 556.74 48.1599 555.95C48.1499 555.87 48.1499 555.79 48.1399 555.7C48.0899 554.9 48.0499 554.09 48.0199 553.29V553.26C48.0099 552.69 47.9999 552.13 47.9999 551.56C47.9999 549.3 48.1099 547.05 48.2899 544.79C48.4899 542.4 48.7699 539.99 49.0999 537.58C49.2299 536.6 49.3699 535.62 49.5099 534.63C49.5299 534.52 49.5399 534.42 49.5599 534.31C49.7099 533.26 49.8699 532.21 50.0099 531.16C53.8499 504.52 56.4799 478.27 54.5199 451.28C53.8899 442.74 52.9199 434.23 51.7899 425.72C50.4999 416.11 49.0199 406.51 47.5899 396.91C46.3399 388.44 45.1299 379.96 44.1599 371.47C43.1199 362.34 39.5099 351.57 45.5699 343.28C51.7199 334.86 65.4599 329.66 76.1099 330.76C78.3299 330.99 80.5499 331.69 82.2799 332.95C82.4699 333.08 82.6399 333.22 82.8099 333.36C83.0999 333.62 83.3799 333.88 83.6299 334.17C85.8999 336.71 86.4599 340.49 86.3399 344.61C86.1699 350.86 84.4399 357.86 84.7699 362.39C85.5399 372.95 85.6199 381.85 85.8499 390.89C85.8499 390.89 85.8499 390.89 85.8499 390.9V390.91C85.9499 395.09 86.0899 399.3 86.3399 403.71C86.8599 412.99 86.8899 422.9 86.7699 432.19C86.5099 454.62 79.9899 475.69 75.3499 497.55C75.2999 497.81 75.2399 498.08 75.1899 498.35C75.1299 498.68 75.0599 499 74.9999 499.34C74.9299 499.67 74.8799 500.02 74.8199 500.36C74.7899 500.49 74.7699 500.63 74.7499 500.77C74.7199 500.91 74.6999 501.05 74.6699 501.2C74.6099 501.59 74.5499 501.99 74.4899 502.39V502.45C74.4499 502.67 74.4199 502.88 74.3899 503.09C74.3499 503.39 74.3099 503.7 74.2699 504.01L71.9699 503.26C71.9699 503.26 60.3999 535.39 64.4499 546.39C68.4999 557.38 72.9999 570.67 107.5 570.77C142 570.88 191.51 570.27 227.5 580.82C228.31 581.06 229.07 581.27 229.79 581.45Z" fill="#1C1930"/>
<path d="M143.8 598.55V660.76C143.8 662.35 142.69 663.65 141.32 663.65H131.41C130.03 663.65 128.91 662.36 128.91 660.76V598.55C128.91 596.94 130.02 595.65 131.41 595.65H141.32C142.69 595.65 143.8 596.95 143.8 598.55Z" fill="#1C1930"/>
<path d="M146.31 666.58H126.27C125.01 666.58 124.05 667.76 124.19 669.09L127.98 704.68L131.12 734C131.23 735.14 132.13 736 133.2 736H140.14C141.21 736 142.12 735.13 142.22 733.97L144.74 707.41L148.39 669.05C148.52 667.73 147.55 666.58 146.31 666.58Z" fill="#1C1930"/>
<path d="M127.87 719.08C124.66 719.59 121.45 720.11 118.24 720.62C111.15 721.75 104.07 722.87 96.9799 724C89.2799 725.23 81.5599 726.47 73.8599 727.71C70.7899 728.21 67.7099 728.71 64.6499 729.21C62.0699 729.62 59.2999 729.87 56.7799 730.58C56.5699 730.65 56.2099 730.94 56.1199 731.15C55.7399 732.05 55.8799 734.91 55.8799 736.01H45.7099C45.6199 735.05 45.6199 734.08 45.6699 733.12C45.7399 731.58 45.5799 730 46.5299 728.67C48.2599 726.27 52.4599 725.56 55.0699 724.65C61.6299 722.38 68.2799 720.39 74.9299 718.4C82.7399 716.08 90.5999 713.84 98.4599 711.64C105.01 709.8 111.57 708 118.13 706.22C120.87 705.48 123.61 704.74 126.36 704.01L127.12 711.61L127.87 719.08Z" fill="#1C1930"/>
<path d="M62.57 750.91C62.61 751.79 62.54 752.66 62.38 753.51C61.42 758.52 57.13 762.38 51.83 762.62C48.34 762.76 45.16 761.29 43 758.88C41.32 757.01 40.25 754.57 40.13 751.88C39.86 745.69 44.66 740.46 50.87 740.19C57.07 739.91 62.3 744.72 62.57 750.91Z" fill="#1C1930"/>
<path d="M147.51 751.02C147.77 757.22 142.96 762.46 136.77 762.73C136.41 762.74 136.06 762.74 135.7 762.72C129.98 762.43 125.33 757.83 125.08 752C124.81 745.81 129.61 740.58 135.82 740.31C140.87 740.08 145.29 743.25 146.89 747.8C147.26 748.8 147.47 749.88 147.51 751.02Z" fill="#1C1930"/>
<path d="M233.03 751.99C232.76 758.18 227.53 762.98 221.34 762.73C220.54 762.7 219.76 762.57 219 762.37C213.97 761.07 210.36 756.41 210.6 751.02C210.87 744.83 216.1 740.03 222.29 740.3C225.26 740.43 227.91 741.7 229.83 743.65C231.93 745.8 233.17 748.77 233.03 751.99Z" fill="#1C1930"/>
<path d="M145.28 719.08C148.49 719.59 151.7 720.11 154.91 720.62C162 721.75 169.08 722.87 176.17 724C183.87 725.23 191.59 726.47 199.29 727.71C202.36 728.21 205.44 728.71 208.5 729.21C211.08 729.62 213.85 729.87 216.37 730.58C216.58 730.65 216.94 730.94 217.03 731.15C217.41 732.05 217.27 734.91 217.27 736.01H227.44C227.53 735.05 227.53 734.08 227.48 733.12C227.41 731.58 227.57 730 226.62 728.67C224.89 726.27 220.69 725.56 218.08 724.65C211.52 722.38 204.87 720.39 198.22 718.4C190.41 716.08 182.55 713.84 174.69 711.64C168.14 709.8 161.58 708 155.03 706.22C152.29 705.48 149.55 704.74 146.8 704.01L146.04 711.61L145.28 719.08Z" fill="#1C1930"/>
<path d="M229.79 581.45C229 582.85 228.18 584.23 227.33 585.6C226.46 587 225.46 588.45 223.88 589.11C222.93 589.51 221.87 589.57 220.83 589.62C216.55 589.84 212.28 590.04 208 590.22C187.8 591.07 167.57 591.49 147.35 591.48C127.12 591.47 106.9 591.04 86.6999 590.18C86.1699 590.16 85.6299 590.14 85.0999 590.11C84.6799 590.09 84.2599 590.07 83.8299 590.05C77.2499 589.7 70.5899 588.97 64.8799 585.99C60.0899 583.48 56.3699 579.53 53.7099 575.01C52.4899 572.94 51.4999 570.75 50.7099 568.52C50.6999 568.5 50.6999 568.47 50.6899 568.45C50.4299 567.72 50.1999 566.98 49.9899 566.25C49.9399 566.1 49.8999 565.95 49.8499 565.8C49.6499 565.09 49.4699 564.37 49.2999 563.65C49.2699 563.49 49.2299 563.33 49.1899 563.17C49.0299 562.44 48.8899 561.71 48.7599 560.97C48.7499 560.88 48.7299 560.79 48.7199 560.7C48.5999 559.96 48.4899 559.22 48.3999 558.49C48.3899 558.42 48.3799 558.36 48.3799 558.3C48.2899 557.52 48.2199 556.74 48.1599 555.95C48.1499 555.87 48.1499 555.79 48.1399 555.7C48.0899 554.9 48.0499 554.09 48.0199 553.29V553.26C48.0099 552.69 47.9999 552.13 47.9999 551.56C47.9999 549.3 48.1099 547.05 48.2899 544.79C48.4899 542.4 48.7699 539.99 49.0999 537.58C49.2299 536.6 49.3699 535.62 49.5099 534.63C49.5299 534.52 49.5399 534.42 49.5599 534.31C49.7099 533.26 49.8699 532.21 50.0099 531.16C53.8499 504.52 56.4799 478.27 54.5199 451.28C53.8899 442.74 52.9199 434.23 51.7899 425.72C50.4999 416.11 49.0199 406.51 47.5899 396.91C46.3399 388.44 45.1299 379.96 44.1599 371.47C43.1199 362.34 39.5099 351.57 45.5699 343.28C51.7199 334.86 65.4599 329.66 76.1099 330.76C78.3299 330.99 80.5499 331.69 82.2799 332.95C82.4699 333.08 82.6399 333.22 82.8099 333.36C83.0999 333.62 83.3799 333.88 83.6299 334.17C85.8999 336.71 86.4599 340.49 86.3399 344.61C86.1699 350.86 84.4399 357.86 84.7699 362.39C85.5399 372.95 85.6199 381.85 85.8499 390.89C85.8499 390.89 85.8499 390.89 85.8499 390.9V390.91C85.9499 395.09 86.0899 399.3 86.3399 403.71C86.8599 412.99 86.8899 422.9 86.7699 432.19C86.5099 454.62 79.9899 475.69 75.3499 497.55C75.2999 497.81 75.2399 498.08 75.1899 498.35C75.1299 498.68 75.0599 499 74.9999 499.34C74.9299 499.67 74.8799 500.02 74.8199 500.36C74.7899 500.49 74.7699 500.63 74.7499 500.77C74.7199 500.91 74.6999 501.05 74.6699 501.2C74.6099 501.59 74.5499 501.99 74.4899 502.39V502.45C74.4499 502.67 74.4199 502.88 74.3899 503.09C74.3499 503.39 74.3099 503.7 74.2699 504.01L71.9699 503.26C71.9699 503.26 60.3999 535.39 64.4499 546.39C68.4999 557.38 72.9999 570.67 107.5 570.77C142 570.88 191.51 570.27 227.5 580.82C228.31 581.06 229.07 581.27 229.79 581.45Z" fill="#1C1930"/>
<path d="M143.8 634.81V661C143.8 662.46 142.69 663.65 141.32 663.65H131.41C130.03 663.65 128.91 662.46 128.91 661V631.94C131.95 631.03 134.87 630.9 136.97 632.43C138.48 633.51 140.92 634.28 143.8 634.81Z" fill="#100F1E"/>
<path d="M149.9 752.75L148.9 752.71C149.21 745.41 143.81 739.24 136.86 738.94C133.49 738.8 130.27 740.03 127.79 742.42C125.3 744.82 123.84 748.09 123.69 751.63L122.69 751.59C122.85 747.79 124.42 744.28 127.1 741.71C129.79 739.13 133.28 737.79 136.91 737.95C144.4 738.25 150.24 744.9 149.9 752.75Z" fill="#100F1E"/>
<path d="M64.94 752.75L63.94 752.71C64.25 745.41 58.85 739.24 51.9 738.94C48.53 738.8 45.31 740.03 42.83 742.42C40.34 744.82 38.88 748.09 38.73 751.63L37.73 751.59C37.89 747.79 39.46 744.28 42.14 741.71C44.83 739.13 48.32 737.79 51.95 737.95C59.44 738.25 65.27 744.9 64.94 752.75Z" fill="#100F1E"/>
<path d="M127.87 719.08C124.66 719.59 121.45 720.11 118.24 720.62C111.15 721.75 104.07 722.87 96.98 724C89.28 725.23 81.56 726.47 73.86 727.71C70.79 728.21 67.71 728.71 64.65 729.21C62.07 729.62 59.3 729.87 56.78 730.58C56.57 730.65 56.21 730.94 56.12 731.15C55.74 732.05 55.88 734.91 55.88 736.01H51.33C51.34 733.34 51.63 730.16 52.77 728.75C54.79 726.23 119.38 713.16 127.11 711.61L127.87 719.08Z" fill="#100F1E"/>
<path d="M62.39 753.5C61.43 758.51 57.14 762.37 51.84 762.61C48.35 762.75 45.17 761.28 43.01 758.87C47.47 759.43 53.12 759.34 58.3 756.9C60.16 756.02 61.49 754.84 62.39 753.5Z" fill="#100F1E"/>
<path d="M147.51 751.02C147.77 757.22 142.96 762.46 136.77 762.73C136.41 762.74 136.06 762.74 135.7 762.72C136.24 762.42 136.88 762.11 137.64 761.78C143.24 759.37 145.77 753.28 146.88 747.79C147.26 748.8 147.47 749.88 147.51 751.02Z" fill="#100F1E"/>
<path d="M235.42 752.75L234.42 752.71C234.73 745.41 229.33 739.24 222.38 738.94C219.01 738.8 215.79 740.03 213.31 742.42C210.82 744.82 209.36 748.09 209.21 751.63L208.21 751.59C208.37 747.79 209.94 744.28 212.62 741.71C215.31 739.13 218.8 737.79 222.43 737.95C229.92 738.25 235.75 744.9 235.42 752.75Z" fill="#100F1E"/>
<path d="M145.28 719.08C148.49 719.59 151.7 720.11 154.91 720.62C162 721.75 169.08 722.87 176.17 724C183.87 725.23 191.59 726.47 199.29 727.71C202.36 728.21 205.44 728.71 208.5 729.21C211.08 729.62 213.85 729.87 216.37 730.58C216.58 730.65 216.94 730.94 217.03 731.15C217.41 732.05 217.27 734.91 217.27 736.01H221.82C221.81 733.34 221.52 730.16 220.38 728.75C218.36 726.23 153.77 713.16 146.04 711.61L145.28 719.08Z" fill="#100F1E"/>
<path d="M233.03 751.99C232.76 758.18 227.53 762.98 221.34 762.73C220.54 762.7 219.76 762.57 219 762.37C219.86 761.67 221.08 761 222.78 760.35C230.48 757.38 230.82 749.53 229.84 743.65C231.93 745.8 233.17 748.77 233.03 751.99Z" fill="#100F1E"/>
<path d="M239.37 553.87C239.37 556.27 239.03 558.74 238.47 561.15C237.99 563.24 237.34 565.28 236.59 567.19C236.12 568.39 235.62 569.59 235.11 570.77C234.6 571.95 234.06 573.12 233.51 574.28C232.36 576.71 231.12 579.1 229.79 581.45C229.07 581.27 228.31 581.06 227.5 580.82C191.51 570.27 142 570.88 107.5 570.77C72.9999 570.67 68.4999 557.38 64.4499 546.39C60.3999 535.39 71.9699 503.26 71.9699 503.26L74.2699 504.01C74.2499 504.15 74.2399 504.3 74.2199 504.45C74.1999 504.64 74.1699 504.82 74.1499 505.01C74.0899 505.51 74.0399 506.01 73.9899 506.52C73.9899 506.57 73.9799 506.61 73.9799 506.66C73.9699 506.75 73.9599 506.85 73.9499 506.95C73.8999 507.5 73.8499 508.06 73.7999 508.62C73.7999 508.68 73.7899 508.74 73.7899 508.8C73.7899 508.83 73.7899 508.86 73.7799 508.89C73.7399 509.49 73.6999 510.1 73.6599 510.72V510.84C73.5799 512.25 73.5299 513.69 73.5099 515.14C73.4999 515.47 73.4999 515.81 73.4999 516.15C73.4899 517.21 73.4999 518.27 73.5199 519.34C73.5399 519.85 73.5499 520.37 73.5699 520.88C73.5999 521.85 73.6499 522.81 73.7099 523.78C73.7399 524.27 73.7699 524.77 73.8099 525.26C73.9099 526.69 74.0399 528.12 74.2099 529.53C74.3899 531.13 74.6199 532.71 74.8799 534.26C75.8299 539.89 76.7199 543.66 81.1199 548.26C86.2699 553.63 92.5799 556.21 99.2499 557.25C99.7299 557.33 100.22 557.4 100.7 557.46C101.23 557.52 101.75 557.58 102.28 557.63C103.18 557.72 104.09 557.78 104.99 557.81C105.15 557.82 105.32 557.82 105.49 557.83C105.8 557.84 106.11 557.85 106.42 557.86C107.24 557.87 108.07 557.87 108.89 557.86C111.36 557.82 113.83 557.66 116.27 557.44C142.9 555.02 168.94 549.12 194.93 543.29C199.89 542.17 204.85 541.06 209.81 539.98C210.55 539.82 211.28 539.66 212.02 539.5C219.03 537.97 227.03 536.66 232.97 540.47C236.94 543.01 238.76 546.97 239.24 551.39C239.33 552.2 239.37 553.03 239.37 553.87Z" fill="#100F1E"/>
<path d="M143.8 634.81V661C143.8 662.46 142.69 663.65 141.32 663.65H131.41C130.03 663.65 128.91 662.46 128.91 661V631.94C131.95 631.03 134.87 630.9 136.97 632.43C138.48 633.51 140.92 634.28 143.8 634.81Z" fill="#100F1E"/>
<path d="M149.9 752.75L148.9 752.71C149.21 745.41 143.81 739.24 136.86 738.94C133.49 738.8 130.27 740.03 127.79 742.42C125.3 744.82 123.84 748.09 123.69 751.63L122.69 751.59C122.85 747.79 124.42 744.28 127.1 741.71C129.79 739.13 133.28 737.79 136.91 737.95C144.4 738.25 150.24 744.9 149.9 752.75Z" fill="#100F1E"/>
<path d="M64.94 752.75L63.94 752.71C64.25 745.41 58.85 739.24 51.9 738.94C48.53 738.8 45.31 740.03 42.83 742.42C40.34 744.82 38.88 748.09 38.73 751.63L37.73 751.59C37.89 747.79 39.46 744.28 42.14 741.71C44.83 739.13 48.32 737.79 51.95 737.95C59.44 738.25 65.27 744.9 64.94 752.75Z" fill="#100F1E"/>
<path d="M127.87 719.08C124.66 719.59 121.45 720.11 118.24 720.62C111.15 721.75 104.07 722.87 96.98 724C89.28 725.23 81.56 726.47 73.86 727.71C70.79 728.21 67.71 728.71 64.65 729.21C62.07 729.62 59.3 729.87 56.78 730.58C56.57 730.65 56.21 730.94 56.12 731.15C55.74 732.05 55.88 734.91 55.88 736.01H51.33C51.34 733.34 51.63 730.16 52.77 728.75C54.79 726.23 119.38 713.16 127.11 711.61L127.87 719.08Z" fill="#100F1E"/>
<path d="M62.39 753.5C61.43 758.51 57.14 762.37 51.84 762.61C48.35 762.75 45.17 761.28 43.01 758.87C47.47 759.43 53.12 759.34 58.3 756.9C60.16 756.02 61.49 754.84 62.39 753.5Z" fill="#100F1E"/>
<path d="M147.51 751.02C147.77 757.22 142.96 762.46 136.77 762.73C136.41 762.74 136.06 762.74 135.7 762.72C136.24 762.42 136.88 762.11 137.64 761.78C143.24 759.37 145.77 753.28 146.88 747.79C147.26 748.8 147.47 749.88 147.51 751.02Z" fill="#100F1E"/>
<path d="M235.42 752.75L234.42 752.71C234.73 745.41 229.33 739.24 222.38 738.94C219.01 738.8 215.79 740.03 213.31 742.42C210.82 744.82 209.36 748.09 209.21 751.63L208.21 751.59C208.37 747.79 209.94 744.28 212.62 741.71C215.31 739.13 218.8 737.79 222.43 737.95C229.92 738.25 235.75 744.9 235.42 752.75Z" fill="#100F1E"/>
<path d="M145.28 719.08C148.49 719.59 151.7 720.11 154.91 720.62C162 721.75 169.08 722.87 176.17 724C183.87 725.23 191.59 726.47 199.29 727.71C202.36 728.21 205.44 728.71 208.5 729.21C211.08 729.62 213.85 729.87 216.37 730.58C216.58 730.65 216.94 730.94 217.03 731.15C217.41 732.05 217.27 734.91 217.27 736.01H221.82C221.81 733.34 221.52 730.16 220.38 728.75C218.36 726.23 153.77 713.16 146.04 711.61L145.28 719.08Z" fill="#100F1E"/>
<path d="M233.03 751.99C232.76 758.18 227.53 762.98 221.34 762.73C220.54 762.7 219.76 762.57 219 762.37C219.86 761.67 221.08 761 222.78 760.35C230.48 757.38 230.82 749.53 229.84 743.65C231.93 745.8 233.17 748.77 233.03 751.99Z" fill="#100F1E"/>
<path d="M239.37 553.87C239.37 556.27 239.03 558.74 238.47 561.15C237.99 563.24 237.34 565.28 236.59 567.19C236.12 568.39 235.62 569.59 235.11 570.77C234.6 571.95 234.06 573.12 233.51 574.28C232.36 576.71 231.12 579.1 229.79 581.45C229.07 581.27 228.31 581.06 227.5 580.82C191.51 570.27 142 570.88 107.5 570.77C72.9999 570.67 68.4999 557.38 64.4499 546.39C60.3999 535.39 71.9699 503.26 71.9699 503.26L74.2699 504.01C74.2499 504.15 74.2399 504.3 74.2199 504.45C74.1999 504.64 74.1699 504.82 74.1499 505.01C74.0899 505.51 74.0399 506.01 73.9899 506.52C73.9899 506.57 73.9799 506.61 73.9799 506.66C73.9699 506.75 73.9599 506.85 73.9499 506.95C73.8999 507.5 73.8499 508.06 73.7999 508.62C73.7999 508.68 73.7899 508.74 73.7899 508.8C73.7899 508.83 73.7899 508.86 73.7799 508.89C73.7399 509.49 73.6999 510.1 73.6599 510.72V510.84C73.5799 512.25 73.5299 513.69 73.5099 515.14C73.4999 515.47 73.4999 515.81 73.4999 516.15C73.4899 517.21 73.4999 518.27 73.5199 519.34C73.5399 519.85 73.5499 520.37 73.5699 520.88C73.5999 521.85 73.6499 522.81 73.7099 523.78C73.7399 524.27 73.7699 524.77 73.8099 525.26C73.9099 526.69 74.0399 528.12 74.2099 529.53C74.3899 531.13 74.6199 532.71 74.8799 534.26C75.8299 539.89 76.7199 543.66 81.1199 548.26C86.2699 553.63 92.5799 556.21 99.2499 557.25C99.7299 557.33 100.22 557.4 100.7 557.46C101.23 557.52 101.75 557.58 102.28 557.63C103.18 557.72 104.09 557.78 104.99 557.81C105.15 557.82 105.32 557.82 105.49 557.83C105.8 557.84 106.11 557.85 106.42 557.86C107.24 557.87 108.07 557.87 108.89 557.86C111.36 557.82 113.83 557.66 116.27 557.44C142.9 555.02 168.94 549.12 194.93 543.29C199.89 542.17 204.85 541.06 209.81 539.98C210.55 539.82 211.28 539.66 212.02 539.5C219.03 537.97 227.03 536.66 232.97 540.47C236.94 543.01 238.76 546.97 239.24 551.39C239.33 552.2 239.37 553.03 239.37 553.87Z" fill="#100F1E"/>
<path d="M485 451.55C484.68 456.25 484.79 461.84 486.32 466.19C486.5 466.7 486.66 467.22 486.79 467.75C487.92 472.01 487.69 476.57 486.79 480.71C486.2 483.43 485.33 485.97 484.36 488.14H468.53C467.36 488.14 466.41 487.18 466.41 486.02V453.66C466.41 452.49 467.36 451.54 468.53 451.54L485 451.55Z" fill="#163E6D"/>
<path d="M573.63 307.45C569.49 305.76 563.21 308.99 559.77 311.62C559.77 311.62 555.48 314.88 551.33 320.49C551.16 322.08 551.22 323.98 551.22 323.98C550.98 323.69 550.49 322.95 550.06 322.29C547.87 325.55 545.86 329.47 544.71 333.9C541.65 345.65 546.28 350.04 542.75 356.84C543.4 357.45 543.97 358.15 544.48 358.88C545.83 360.82 546.72 363.04 547.37 365.29C547.89 367.06 548.27 368.87 548.58 370.68C548.85 372.26 549.13 373.87 549.4 375.51C550.66 374.16 552.03 373.02 553.47 372C554.18 371.51 554.91 371.05 555.65 370.6C558.08 369.15 560.67 367.93 563.32 366.6C565.09 365.7 566.81 364.68 568.44 363.54C566.93 356.81 567.74 351.53 569.23 346.98L566.39 343.53L570.74 342.98C571.97 340.05 573.29 337.38 574.12 334.73C575.39 330.72 576.28 327.24 576.86 324.25L574.37 321.96L577.29 321.81C578.65 312.72 576.74 308.71 573.63 307.45Z" fill="#0A2056"/>
<path d="M550.88 413.91L550.73 415.47L550.47 422.97C550.23 424.83 550.34 426.69 550.28 428.56H547.36C547.54 426.68 547.71 424.81 547.89 422.93C548.19 419.75 548.52 416.58 548.85 413.41C549.51 413.62 550.19 413.79 550.88 413.91Z" fill="#03122B"/>
<path d="M566.52 319.93C565.29 322.15 564.21 324.4 563.17 326.71C562.63 327.86 562.13 329.02 561.55 330.16L560.67 331.86C560.53 332.13 560.39 332.4 560.26 332.67L559.88 333.5C559.41 334.62 558.97 335.74 558.61 336.89C558.26 338.04 557.98 339.22 557.75 340.4C557.3 342.78 557.05 345.2 556.96 347.66C556.84 351.43 556.87 355.2 556.81 358.97C556.76 360.25 556.7 361.54 556.59 362.83C556.49 364.12 556.33 365.44 556.16 366.71L555.67 370.45L555.65 370.6C554.91 371.05 554.18 371.51 553.47 372L553.69 370.2C553.98 367.69 554.39 365.19 554.55 362.68C554.89 357.66 554.71 352.6 555.03 347.54C555.2 345.02 555.49 342.49 556.08 340.02C556.64 337.55 557.5 335.14 558.65 332.87C559.22 331.74 559.91 330.67 560.54 329.58C561.17 328.49 561.78 327.39 562.4 326.28C563.62 324.08 564.87 321.87 566.35 319.81L566.52 319.93Z" fill="#03122B"/>
<path d="M600.15 335.1C598.98 332.65 596.55 330.63 593.84 330.72C591.16 330.8 588.93 332.88 587.64 335.22C584.65 340.63 583.51 346.62 579.96 351.84C579.82 352.04 579.68 352.24 579.55 352.44L580.56 355.59L578.63 353.69C578.42 353.97 578.21 354.24 578 354.51L579.1 356.18L577.3 355.37C574.73 358.47 571.74 361.24 568.44 363.54C566.81 364.68 565.09 365.7 563.32 366.6C560.67 367.93 558.08 369.15 555.65 370.6C554.91 371.05 554.18 371.51 553.47 372C552.03 373.02 550.66 374.16 549.4 375.51C550.46 382.12 551.24 389.08 549.93 395.47C548.86 400.66 546.19 404.5 542.28 406.58C542.11 406.67 541.93 406.76 541.75 406.85C542.31 408.4 543.14 409.8 544.33 410.91C545.57 412.06 547.13 412.87 548.85 413.41C549.51 413.62 550.19 413.79 550.88 413.91C551.53 414.04 552.2 414.13 552.86 414.19C553.5 414.25 554.13 414.29 554.76 414.29C556.86 414.33 558.92 414.11 560.69 413.74C572.45 411.26 576.31 402.08 580.27 392.52L577.37 387.62L581.58 389.4C582.1 388.17 582.64 386.95 583.21 385.74C586.51 378.82 591.53 373.87 596.19 367.92C600.95 361.84 601.51 354.23 601.47 346.8C601.45 342.92 601.87 338.7 600.15 335.1Z" fill="#0F3860"/>
<path d="M592.18 342.96C591.82 345.49 591.11 347.97 590.21 350.36C589.31 352.76 588.19 355.08 586.84 357.25C585.48 359.42 583.97 361.51 582.2 363.35C581.36 364.32 580.37 365.14 579.45 366.02C579.22 366.25 578.96 366.43 578.71 366.63L577.96 367.23C577.45 367.62 576.96 368.03 576.44 368.4C572.28 371.41 568.2 374.62 564.78 378.49C563.07 380.42 561.51 382.5 560.18 384.71C558.86 386.93 557.74 389.26 556.83 391.68C555.01 396.51 553.98 401.6 553.4 406.71C553.12 409.27 552.93 411.84 552.85 414.41C552.76 416.98 552.76 419.56 552.8 422.12L552.88 428.56H554.59C554.51 426.41 554.48 424.26 554.51 422.11C554.55 419.53 554.63 417.02 554.75 414.48C554.88 411.95 555.11 409.44 555.43 406.95C556.07 401.96 557.08 397.05 558.86 392.45C559.72 390.14 560.76 387.91 562 385.8C563.24 383.69 564.71 381.72 566.31 379.85C567.9 377.97 569.69 376.23 571.57 374.58C572.51 373.75 573.48 372.95 574.46 372.15C575.44 371.35 576.44 370.57 577.45 369.79C577.69 369.6 577.95 369.39 578.21 369.17L578.98 368.53L579.75 367.89C580 367.67 580.27 367.47 580.5 367.23C581.44 366.28 582.45 365.4 583.27 364.35C585.04 362.36 586.52 360.14 587.82 357.85C589.1 355.55 590.13 353.12 590.91 350.63C591.11 350.01 591.26 349.37 591.44 348.74C591.61 348.11 591.74 347.48 591.88 346.84C592.12 345.56 592.32 344.28 592.39 342.98L592.18 342.96Z" fill="#061A44"/>
<path d="M549.4 375.51C549.13 373.87 548.85 372.26 548.58 370.68C548.27 368.87 547.89 367.06 547.37 365.29C546.72 363.04 545.83 360.82 544.48 358.88C543.97 358.15 543.4 357.45 542.75 356.84C542.57 356.66 542.39 356.49 542.2 356.33C541.76 355.96 541.29 355.62 540.8 355.32C540.24 355.04 539.73 354.66 539.19 354.36C538.62 354.04 538.03 353.74 537.44 353.47C536.42 353.01 535.37 352.63 534.36 352.15C532.97 351.49 531.63 350.72 530.33 349.91C526.61 347.57 524.37 343.61 522.28 339.89C516.91 330.36 510.21 322.43 498.94 321.12C498.51 321.06 498.07 321.02 497.62 320.99C494.97 320.81 491.61 320.47 489.31 322C486.81 323.68 485.82 326.93 485.87 330.47C485.94 335.41 487.41 340.81 489.08 345.39C490.47 349.18 492.32 353.49 495.19 355.92C498.29 358.53 499.89 361.29 500.58 365.77C501.02 368.69 501.32 371.52 501.76 374.35C503.35 374.74 505.23 375.03 506.71 375.13C507.51 375.19 508.2 375.19 508.65 375.13C509.51 375 508.53 375.74 507.17 376.81C506.4 377.41 505.5 378.12 504.75 378.84C504 379.56 503.38 380.3 503.18 380.97C505.26 388.12 509.08 394.84 513.92 399.66C517.77 403.5 522.64 406.09 527.9 407.42C529.54 407.83 531.18 408.08 532.83 408.25C533.05 408.27 533.26 408.29 533.48 408.3C535.46 408.42 537.29 408.26 538.97 407.84C539.78 407.64 540.56 407.38 541.29 407.05C541.45 406.99 541.6 406.92 541.75 406.85C541.93 406.76 542.11 406.67 542.28 406.58C546.19 404.5 548.86 400.66 549.93 395.47C551.24 389.08 550.46 382.12 549.4 375.51Z" fill="#163E6D"/>
<path d="M544.45 423.79C543.7 418.39 542.69 413.02 541.45 407.72C541.4 407.5 541.34 407.27 541.29 407.05C538.83 396.76 535.42 386.82 531.05 377.19C528.77 372.19 526.31 367.26 523.83 362.36C520.07 354.96 516.59 348.32 510.45 342.59C507.11 339.48 503.42 336.87 499.36 334.77C499.05 334.73 498.87 334.33 498.45 334.48C498.97 334.83 499.45 335.16 499.94 335.49C500.08 335.56 500.23 335.61 500.35 335.69C503.69 338 506.85 340.52 509.68 343.45C515.78 349.75 519.7 357.77 523.22 365.7C526.99 374.2 530.74 382.72 533.94 391.46C535.91 396.84 537.6 402.31 538.97 407.84C540.66 414.65 541.88 421.57 542.58 428.56H544.95C544.71 426.17 544.51 424.23 544.45 423.79Z" fill="#0A2056"/>
<path d="M506.71 375.13C505.23 375.03 503.35 374.74 501.75 374.35C501.31 371.52 501.02 368.68 500.57 365.77C499.89 361.29 498.28 358.53 495.18 355.92C492.31 353.49 490.46 349.18 489.07 345.4C487.4 340.82 485.93 335.42 485.86 330.48C485.81 326.94 486.8 323.69 489.3 322.01C491.6 320.47 494.96 320.82 497.61 321C498.06 321.03 498.49 321.07 498.93 321.13C496.76 321.46 494.57 322.06 492.63 323.12C491.46 323.76 490.07 324.68 489.62 326.02C489.09 327.61 490.49 328.51 491.47 329.5C493.07 331.11 494.44 332.95 495.43 335C497.05 338.34 497.38 341.91 498.04 345.5C498.66 348.83 500.08 351.84 502.55 354.17C504.19 355.72 506.72 357.02 507.44 359.3C508.31 361.94 505.4 368.72 506.71 375.13Z" fill="#0A2056"/>
<path d="M533.48 408.3C533.27 408.29 533.05 408.27 532.83 408.25C531.18 408.08 529.54 407.83 527.9 407.42C522.64 406.09 517.77 403.5 513.92 399.66C509.08 394.84 505.26 388.12 503.18 380.97C503.6 379.65 505.63 378.01 507.17 376.81C508.02 379.36 509.69 381.79 512.68 383.79C523.73 391.18 522.68 388.57 526.23 399.05C527.51 402.84 530.36 405.92 533.48 408.3Z" fill="#0A2056"/>
<path d="M506.71 375.13C505.23 375.03 503.35 374.74 501.75 374.35C501.31 371.52 501.02 368.68 500.57 365.77C499.89 361.29 498.28 358.53 495.18 355.92C492.31 353.49 490.46 349.18 489.07 345.4C487.4 340.82 485.93 335.42 485.86 330.48C485.81 326.94 486.8 323.69 489.3 322.01C491.6 320.47 494.96 320.82 497.61 321C498.06 321.03 498.49 321.07 498.93 321.13C496.76 321.46 494.57 322.06 492.63 323.12C491.46 323.76 490.07 324.68 489.62 326.02C489.09 327.61 490.49 328.51 491.47 329.5C493.07 331.11 494.44 332.95 495.43 335C497.05 338.34 497.38 341.91 498.04 345.5C498.66 348.83 500.08 351.84 502.55 354.17C504.19 355.72 506.72 357.02 507.44 359.3C508.31 361.94 505.4 368.72 506.71 375.13Z" fill="#0A2056"/>
<path d="M533.48 408.3C533.27 408.29 533.05 408.27 532.83 408.25C531.18 408.08 529.54 407.83 527.9 407.42C522.64 406.09 517.77 403.5 513.92 399.66C509.08 394.84 505.26 388.12 503.18 380.97C503.6 379.65 505.63 378.01 507.17 376.81C508.02 379.36 509.69 381.79 512.68 383.79C523.73 391.18 522.68 388.57 526.23 399.05C527.51 402.84 530.36 405.92 533.48 408.3Z" fill="#0A2056"/>
<path d="M556.86 460.77C557.05 461.52 557.2 462.28 557.32 463.05C560.97 463.29 564.7 463.41 568.56 463.41C570.03 463.41 571.51 463.39 573.02 463.35C573.02 463.42 573.01 463.48 573 463.54C567.66 465.39 562.6 466.94 557.69 468.22V468.23C557.68 469 557.66 469.77 557.6 470.53C562.44 469.26 567.41 467.75 572.65 465.95C571.61 472.63 570.18 478.39 569.16 481.99C564.5 481.97 559.95 481.79 555.59 481.44C555.38 482.19 555.15 482.93 554.92 483.63C559.29 483.99 563.84 484.19 568.5 484.23C568.24 485.07 568.05 485.62 567.97 485.83C567.96 485.86 567.95 485.88 567.94 485.9C567.32 487.45 565.92 488.44 564.39 488.45C562.27 488.47 557.79 488.5 553.09 488.53C545.87 488.57 538.11 488.57 537.47 488.44C536.39 488.21 535.11 485.33 534.83 484.67C534.79 484.57 534.74 484.47 534.69 484.38C533.9 482.83 533.18 481.27 532.55 479.7C532.2 478.85 531.88 478 531.57 477.14C531.26 476.27 530.98 475.39 530.71 474.52C530.49 473.77 530.28 473.03 530.08 472.28C528.73 467.15 528.08 462.08 527.89 457.31V457.3C527.85 456.52 527.83 455.75 527.82 454.99C527.81 454.26 527.81 453.55 527.83 452.85L527.89 450.59C528.03 447.02 528.39 443.72 528.84 440.82L529.2 438.61C529.71 435.78 530.27 433.43 530.73 431.72C531.23 429.84 532.77 428.56 534.52 428.56H567.17C568.73 428.56 570.14 429.57 570.78 431.15C570.93 431.53 571.08 431.92 571.22 432.31C564.57 434.42 558.43 436.01 552.46 437.16C552.29 437.92 552.14 438.7 552.03 439.5C558.34 438.31 564.84 436.64 571.9 434.38C571.93 434.47 571.96 434.56 571.99 434.66C565.07 438.29 558.59 441.29 552.21 443.85C552.06 443.91 551.9 443.97 551.75 444.03C551.76 444.77 551.81 445.53 551.9 446.28C552.12 446.2 552.34 446.11 552.56 446.02C559 443.44 565.54 440.4 572.53 436.74C574.34 444.43 574.2 453.16 573.3 461.11C567.54 461.24 562.12 461.14 556.86 460.77Z" fill="#163E6D"/>
<path d="M552.46 437.16C552.29 437.92 552.14 438.7 552.03 439.5C552.02 439.51 552.01 439.51 552 439.51C546.39 440.56 540.94 441.09 535.5 441.09C533.28 441.09 531.06 441 528.84 440.82L529.2 438.61C536.7 439.17 544.11 438.73 551.83 437.28C552.04 437.24 552.25 437.2 552.46 437.16Z" fill="#0A2056"/>
<path d="M557.32 463.05C555.7 462.95 554.1 462.82 552.5 462.67C543.98 461.86 535.92 460.11 527.89 457.31V457.3C527.85 456.52 527.83 455.75 527.82 454.99C535.91 457.84 544.01 459.62 552.58 460.43C554 460.56 555.42 460.68 556.86 460.77C557.05 461.52 557.2 462.28 557.32 463.05Z" fill="#0A2056"/>
<path d="M555.59 481.44C555.38 482.19 555.15 482.93 554.92 483.63C554.17 483.58 553.43 483.51 552.7 483.44C545.74 482.78 539.13 481.55 532.55 479.7C532.2 478.85 531.88 478 531.57 477.14C538.51 479.18 545.45 480.5 552.79 481.2C553.71 481.29 554.65 481.37 555.59 481.44Z" fill="#0A2056"/>
<path d="M551.9 446.28C543.75 449.49 535.87 451.63 527.83 452.85L527.89 450.59C535.86 449.37 543.68 447.22 551.75 444.03C551.76 444.77 551.81 445.53 551.9 446.28Z" fill="#0A2056"/>
<path d="M557.69 468.23C557.68 469 557.66 469.77 557.6 470.53C555.83 470.99 554.08 471.41 552.34 471.81C544.97 473.48 537.88 474.37 530.71 474.52C530.49 473.77 530.28 473.03 530.08 472.28C537.4 472.18 544.62 471.3 552.14 469.59C553.97 469.17 555.82 468.72 557.69 468.23Z" fill="#0A2056"/>
<path d="M571.9 434.38C564.84 436.64 558.34 438.31 552.03 439.5C552.14 438.7 552.29 437.92 552.46 437.16C558.43 436.01 564.57 434.42 571.22 432.31C571.47 432.99 571.7 433.67 571.9 434.38Z" fill="#03122B"/>
<path d="M572.53 436.74C565.54 440.4 559 443.44 552.56 446.02C552.34 446.11 552.12 446.2 551.9 446.28C551.81 445.53 551.76 444.77 551.75 444.03C551.9 443.97 552.06 443.91 552.21 443.85C558.59 441.29 565.07 438.29 571.99 434.66C572.19 435.34 572.37 436.03 572.53 436.74Z" fill="#03122B"/>
<path d="M573.3 461.11C573.22 461.86 573.12 462.61 573.02 463.35C571.51 463.39 570.03 463.41 568.56 463.41C564.7 463.41 560.97 463.29 557.32 463.05C557.2 462.28 557.05 461.52 556.86 460.77C562.12 461.14 567.54 461.24 573.3 461.11Z" fill="#03122B"/>
<path d="M573 463.54C572.89 464.35 572.77 465.16 572.65 465.95C567.41 467.75 562.44 469.26 557.6 470.53C557.66 469.77 557.68 469 557.69 468.23V468.22C562.6 466.94 567.66 465.39 573 463.54Z" fill="#03122B"/>
<path d="M569.16 481.99C568.91 482.87 568.69 483.63 568.5 484.23C563.84 484.19 559.29 483.99 554.92 483.63C555.15 482.93 555.38 482.19 555.59 481.44C559.95 481.79 564.5 481.97 569.16 481.99Z" fill="#03122B"/>
<path d="M571.22 432.31C564.57 434.42 558.43 436.01 552.46 437.16C553.18 433.89 554.36 430.95 555.53 428.56H567.17C568.73 428.56 570.14 429.57 570.78 431.15C570.93 431.53 571.08 431.92 571.22 432.31Z" fill="#0A2056"/>
<path d="M552.21 443.85C552.06 443.91 551.9 443.97 551.75 444.03C551.72 442.48 551.82 440.96 552.03 439.5C558.34 438.31 564.84 436.64 571.9 434.38C571.93 434.47 571.96 434.56 571.99 434.66C565.07 438.29 558.59 441.29 552.21 443.85Z" fill="#0A2056"/>
<path d="M572.65 465.95C571.61 472.63 570.18 478.39 569.16 481.99C564.5 481.97 559.95 481.79 555.59 481.44C556.56 478.14 557.35 474.39 557.6 470.53C562.44 469.26 567.41 467.75 572.65 465.95Z" fill="#0A2056"/>
<path d="M573.02 463.35C573.02 463.42 573.01 463.48 573 463.54C567.66 465.39 562.6 466.94 557.69 468.22C557.7 466.49 557.59 464.76 557.32 463.05C560.97 463.29 564.7 463.41 568.56 463.41C570.03 463.41 571.51 463.39 573.02 463.35Z" fill="#0A2056"/>
<path d="M573.3 461.11C567.54 461.24 562.12 461.14 556.86 460.77C556.38 458.78 555.66 456.84 554.65 454.99C553.07 452.09 552.22 449.15 551.9 446.28C552.12 446.2 552.34 446.11 552.56 446.02C559 443.44 565.54 440.4 572.53 436.74C574.34 444.43 574.2 453.16 573.3 461.11Z" fill="#0A2056"/>
<path d="M482.91 435.37C481.03 436.22 478.76 437.04 478.22 438.94C477.65 440.93 479.37 442.82 480.53 444.6C481.89 446.68 482.53 449.12 482.48 451.54H481.43C481.42 449.55 480.38 447.73 478.91 446.23C478.32 445.62 477.67 445.07 476.98 444.58C474.59 442.88 471.81 441.74 469.37 440.12C467.89 439.14 466.41 437.59 466.88 435.98C467.16 435.03 468.05 434.38 468.85 433.75C471.04 432.03 473.02 429.75 473.14 427.04C473.26 424.56 471.79 422.22 470.03 420.34C468.28 418.45 466.18 416.84 464.61 414.81C463.03 412.79 462.02 410.15 462.83 407.81C463.28 406.53 464.2 405.52 465.36 404.74C466.82 403.76 468.68 403.15 470.47 402.83C475.08 402 480.04 402.45 484.25 404.5C497.65 411.01 495.43 429.63 482.91 435.37Z" fill="#4F779E"/>
<path d="M498.72 457.64H493.97V453.66C493.97 452.5 493.01 451.55 491.86 451.55H484.78C484.46 456.25 484.57 461.84 486.1 466.19C486.28 466.7 486.44 467.22 486.57 467.75C487.7 472.01 487.47 476.57 486.57 480.71C485.98 483.43 485.11 485.97 484.14 488.14H491.86C492.58 488.14 493.22 487.76 493.61 487.2C493.71 487.05 493.79 486.9 493.85 486.73C493.87 486.68 493.88 486.62 493.9 486.57C493.95 486.4 493.97 486.22 493.97 486.03V484.79H498.72C500.19 484.79 501.38 483.6 501.38 482.13V460.3C501.38 458.83 500.19 457.64 498.72 457.64ZM499.38 482.13C499.38 482.49 499.08 482.79 498.72 482.79H493.97V459.64H498.72C499.08 459.64 499.38 459.94 499.38 460.3V482.13Z" fill="#0A2056"/>
<path d="M554.92 483.63C559.29 483.99 563.84 484.19 568.5 484.23C568.24 485.07 568.05 485.62 567.97 485.83C567.96 485.86 567.95 485.88 567.94 485.9C567.32 487.45 565.92 488.44 564.39 488.45C562.27 488.47 557.79 488.5 553.09 488.53C553.67 487.13 554.31 485.47 554.92 483.63Z" fill="#0A2056"/>
<path d="M232.54 722.65C231.85 723.7 228.88 723.78 225.51 723.57C223.22 723.42 220.75 723.15 218.69 722.96C213.41 722.47 211.63 722.9 206.99 720.9C202.35 718.9 188.07 708.47 186.99 704.35C186.13 701.06 190.18 697.05 194.13 692.02H194.15C196.78 690.14 198.81 687.57 200.39 684.52C200.17 684.44 199.94 684.35 199.71 684.27C199.66 684.25 199.61 684.23 199.56 684.21C199.36 684.13 199.15 684.05 198.94 683.97C199.83 681.3 200.08 678.64 200.08 676.54C200.08 673.98 199.73 672.22 199.73 672.22L204.1 673.56L215.05 676.93L219.07 678.17L221.66 678.97C219.96 681.15 218.82 683.49 217.45 685.77C216.9 686.7 216.3 687.6 215.61 688.49C214.22 690.26 212.83 692.04 211.44 693.81C209.08 696.85 210.83 700.82 211.85 704.11C212.5 706.19 213.28 709.43 215.29 710.64C217.23 711.8 219.81 711.95 222.01 712.02C232.69 712.42 233.7 720.89 232.54 722.65Z" fill="#D65B56"/>
<path d="M284.33 570.48C282.92 574.69 281.32 578.83 279.41 582.84C275.64 590.75 271.04 598.24 266.63 605.81C257.23 621.95 248.65 636.62 240.67 650.07C236.05 657.87 231.41 665.66 226.73 673.43C224.63 676.92 222.71 680.8 220.21 684.02C218.49 686.23 214.11 685.97 212.13 685.71C214.57 684.38 215.87 681.7 217.29 679.44C217.55 679.02 217.81 678.59 218.07 678.17C219.89 675.2 221.66 672.2 223.4 669.2C230.51 657.02 237.81 645.82 244.67 633.51C251.86 620.62 258.59 606.58 265.63 593.63C269.37 586.72 273.58 579.87 276.73 572.66C278.84 567.83 283.4 559.16 279.65 548.99C284.88 555.49 287.6 560.7 284.33 570.48Z" fill="#FFBA04"/>
<path d="M225.51 723.57C225.45 724.01 225.33 724.37 225.18 724.6C224.02 726.36 216.4 725.37 211.33 724.91C206.04 724.42 204.27 724.85 199.63 722.84C196.32 721.42 188.11 715.7 183.28 711.05C185.09 706.26 186.68 697.32 194.13 692.02H194.15C196.78 690.14 198.81 687.57 200.39 684.52C200.17 684.44 199.94 684.35 199.71 684.27V684.26C199.65 684.24 199.6 684.22 199.56 684.21C199.36 684.13 199.15 684.05 198.94 683.97C196.73 683.12 194.35 682.04 192.62 680.74C192.94 677.01 192.37 674.16 192.37 674.16L200.08 676.54L203.12 677.47L213.55 680.68L215.41 681.25C214.33 682.63 213.25 684.01 212.18 685.4C212.17 685.4 212.17 685.4 212.17 685.41C211.9 685.74 211.64 686.07 211.38 686.4C210.34 687.74 209.29 689.09 208.24 690.43C206.86 692.2 205.47 693.98 204.09 695.76C201.73 698.79 203.46 702.76 204.49 706.06C205.13 708.14 205.92 711.38 207.93 712.59C209.87 713.75 212.45 713.89 214.65 713.97C223.9 714.31 225.89 720.71 225.51 723.57Z" fill="#EF9292"/>
<path d="M199.71 684.27C199.66 684.25 199.61 684.23 199.56 684.21C199.36 684.13 199.15 684.05 198.94 683.97C196.73 683.12 194.35 682.04 192.62 680.74C192.37 683.6 191.61 686.97 189.65 689.99C185.15 696.94 178.55 702.19 179.63 706.3C179.72 706.65 180.44 707.61 181.25 708.6L181.54 708.96L182.12 709.66L182.4 709.99C182.76 710.43 183.08 710.81 183.28 711.05C185.09 706.26 186.68 697.32 194.13 692.02H194.15C196.78 690.14 198.81 687.57 200.39 684.52C200.17 684.44 199.94 684.35 199.71 684.27Z" fill="#D65B56"/>
<path d="M277.75 572.65C274.6 579.86 270.39 586.72 266.65 593.62C259.6 606.58 252.87 620.62 245.68 633.51C245.05 634.63 244.43 635.75 243.8 636.85C237.49 647.88 230.87 658.13 224.41 669.2C222.66 672.2 220.9 675.2 219.07 678.17C218.82 678.59 218.56 679.02 218.3 679.44C216.88 681.7 215.58 684.38 213.14 685.71H213.13C213.08 685.75 213.03 685.78 212.98 685.81C212.47 686.07 211.93 686.27 211.38 686.4C208.9 687.04 206.12 686.51 203.77 685.69C202.92 685.39 201.73 684.99 200.39 684.52C199.93 684.35 199.44 684.17 198.94 683.97C196.73 683.12 194.35 682.04 192.62 680.74C190.63 679.25 189.49 677.47 190.43 675.42C194.18 667.27 197.27 659.89 198.67 651.05C199.44 646.23 201.2 640.95 202.01 636.14C203.6 626.78 205.28 617.17 209.55 608.59C212.17 603.32 214.29 599.22 216 595.93C221.16 586.02 222.66 583.59 223.23 579.64C223.36 578.76 223.44 577.8 223.51 576.67C223.99 568.78 221.84 566.85 202.42 564.51C193.11 563.39 135.51 564.2 104.96 560.71C95.9099 559.68 89.2299 558.27 86.8799 556.33C84.9799 554.76 83.2699 553.04 81.7399 551.28C81.6999 551.24 81.6499 551.18 81.5999 551.13C80.6099 549.98 79.6799 548.81 78.8199 547.67C78.8199 547.64 78.7899 547.62 78.7799 547.6C78.6599 547.42 78.5499 547.23 78.4399 547.05C78.4799 547.05 78.5299 547.04 78.5699 547.04C78.6499 547.03 78.7199 547.02 78.7999 547.01C78.9099 547 79.0299 546.99 79.1399 546.97C79.2099 546.96 79.2699 546.96 79.3399 546.95C79.4899 546.93 79.6499 546.91 79.7999 546.9C79.8299 546.9 79.8599 546.89 79.8899 546.89C81.0899 546.73 82.2199 546.56 83.2899 546.36C95.3299 544.18 99.3299 539.59 99.5699 539.3C99.5799 539.29 99.5799 539.29 99.5799 539.29C103.02 536.21 105.6 532.34 108.5 528.78C113.92 522.14 121.27 517.31 128.53 512.9C133.94 509.63 139.26 506.08 145.33 504.15C149.85 502.72 154.53 502.54 159.21 502.14C159.24 502.14 159.27 502.13 159.31 502.13C159.33 502.13 159.36 502.12 159.38 502.12C161.85 501.85 164.87 502.87 167.39 503.26C167.54 503.28 167.69 503.3 167.83 503.32C167.85 503.32 167.87 503.33 167.89 503.33C168.46 503.39 168.95 503.4 169.38 503.35L169.93 503.51C169.94 503.51 169.94 503.51 169.94 503.51L170.27 503.61L176.91 505.49C176.91 505.49 254.41 522.9 267.91 533.23C273.45 537.46 277 541.65 279.16 545.65C279.77 546.77 280.27 547.88 280.67 548.97V548.98C284.42 559.15 279.87 567.82 277.75 572.65Z" fill="#FFBA04"/>
<path d="M372.48 481.11H365.63C365.4 481.11 365.21 480.92 365.21 480.69V480.06C365.21 479.83 365.4 479.64 365.63 479.64H372.48C372.71 479.64 372.9 479.83 372.9 480.06V480.69C372.91 480.92 372.72 481.11 372.48 481.11Z" fill="#F4F4F4"/>
<path d="M381.3 481.11H374.45C374.22 481.11 374.03 480.92 374.03 480.69V480.06C374.03 479.83 374.22 479.64 374.45 479.64H381.3C381.53 479.64 381.72 479.83 381.72 480.06V480.69C381.72 480.92 381.53 481.11 381.3 481.11Z" fill="#F4F4F4"/>
<path d="M390.11 481.11H383.26C383.03 481.11 382.84 480.92 382.84 480.69V480.06C382.84 479.83 383.03 479.64 383.26 479.64H390.11C390.34 479.64 390.53 479.83 390.53 480.06V480.69C390.53 480.92 390.34 481.11 390.11 481.11Z" fill="#F4F4F4"/>
<path d="M398.92 481.11H392.07C391.84 481.11 391.65 480.92 391.65 480.69V480.06C391.65 479.83 391.84 479.64 392.07 479.64H398.92C399.15 479.64 399.34 479.83 399.34 480.06V480.69C399.34 480.92 399.15 481.11 398.92 481.11Z" fill="#F4F4F4"/>
<path d="M238.25 557.88C235.75 565.88 231.75 569.13 229.75 576.63C229.41 577.92 229.16 579.48 228.96 581.23C227.98 589.66 228.06 602.47 223.5 610.13C218 619.38 214.75 619.13 211.25 627.88C207.75 636.63 207.75 645.88 206.25 653.63C204.75 661.38 200.39 684.52 200.39 684.52C199.93 684.35 199.44 684.17 198.94 683.97C196.73 683.12 194.35 682.04 192.62 680.74C190.63 679.25 189.49 677.47 190.43 675.42C194.18 667.27 197.27 659.89 198.67 651.05C199.44 646.23 201.2 640.95 202.01 636.14C203.6 626.78 205.28 617.17 209.55 608.59C212.17 603.32 214.29 599.22 216 595.93C221.16 586.02 222.66 583.59 223.23 579.64C223.36 578.76 223.44 577.8 223.51 576.67C223.99 568.78 221.84 566.85 202.42 564.51C193.11 563.39 135.51 564.2 104.96 560.71C95.9099 559.68 89.2299 558.27 86.8799 556.33C84.9799 554.76 83.2699 553.04 81.7399 551.28C81.6999 551.24 81.6499 551.18 81.5999 551.13C80.6099 549.98 79.6799 548.81 78.8199 547.67C78.8199 547.64 78.7899 547.62 78.7799 547.6C78.6599 547.42 78.5499 547.23 78.4399 547.05C78.4799 547.05 78.5299 547.04 78.5699 547.04C78.6499 547.03 78.7199 547.02 78.7999 547.01C78.9099 547 79.0299 546.99 79.1399 546.97C79.2099 546.96 79.2699 546.96 79.3399 546.95C79.4899 546.93 79.6499 546.91 79.7999 546.9C79.8299 546.9 79.8599 546.89 79.8899 546.89C81.0899 546.73 82.2199 546.56 83.2899 546.36C95.3299 544.18 99.3299 539.59 99.5699 539.3C99.5799 539.29 99.5799 539.29 99.5799 539.29C99.5799 539.29 106 551.33 126.5 548.98C147 546.63 156.28 542.09 167.39 546.36C168.99 546.98 170.63 547.63 172.29 548.29C182.15 552.23 193.09 556.56 205.5 556.13C220 555.63 240.75 549.88 238.25 557.88Z" fill="#FFBA04"/>
<path d="M379.71 454.42C379.11 452.9 372.51 445.61 367.37 443.84C362.22 442.06 348.75 441.2 348.75 441.2C348.75 441.2 280.52 438.52 274.63 436.77C270.17 435.44 266.03 431.11 262.61 428.16C257.43 423.69 252.65 418.82 247.57 414.25C242.77 409.92 237.04 406.8 231.86 402.98C229.67 401.35 227.53 399.67 225.45 397.93C224.99 397.55 224.54 397.17 224.09 396.79C224.25 397.05 224.42 397.32 224.59 397.58C224.62 397.63 223.92 397.92 223.89 397.97C223.59 398.56 223.39 399.21 223.08 399.8C222.13 401.65 221.06 403.4 220.09 405.25C219.4 406.56 218.79 407.86 218.07 409.16C217.26 410.62 216.23 412.05 215.4 413.5C214.2 415.63 213.48 417.95 212.41 419.66C212.35 419.77 212.28 419.88 212.21 419.99C212.51 420.11 212.81 420.24 213.11 420.36C213.21 420.4 213.31 420.45 213.41 420.49C213.53 420.54 213.65 420.59 213.77 420.65C216.24 421.7 218.61 422.86 220.42 424.27C220.81 424.58 221.18 424.9 221.51 425.23C222.53 426.25 225.12 426.71 226.21 427.62C229.06 429.99 233.24 430.92 236.57 432.4C236.66 432.44 236.74 432.48 236.83 432.51C240.39 434.09 243.96 435.68 247.51 437.29C253.65 440.06 259.86 442.81 266.04 445.62C266.44 445.8 266.84 445.98 267.24 446.16C275.5 449.93 283.74 453.81 291.78 458C292.17 458.2 292.55 458.41 292.93 458.61C296.69 460.58 300.4 462.63 304.05 464.77C304.7 465.14 305.34 465.52 305.98 465.9C306.22 465.85 306.47 465.81 306.71 465.76C308.57 465.4 310.41 465.04 312.26 464.64C320.79 462.87 329.24 460.73 337.49 457.97C337.58 457.94 337.68 457.9 337.77 457.86C337.86 457.83 337.96 457.79 338.05 457.74C339.02 457.32 339.98 456.68 341.05 456.19L347.68 452.37C348.29 452.02 349.04 452.02 349.66 452.37C350.03 452.58 350.4 452.79 350.77 453.02C350.82 453.05 350.87 453.08 350.92 453.11C352.34 453.99 353.7 454.97 354.99 456.05C355.67 456.61 356.36 457.18 357.01 457.77C357.74 458.43 358.46 459.16 359.38 459.56C359.52 459.62 359.67 459.68 359.82 459.72C361.22 460.12 362.56 459.46 363.77 458.83C364.8 458.3 365.85 457.72 366.93 457.23C367.19 457.11 367.47 456.98 367.77 456.86C368.6 456.51 369.5 456.2 370.35 456.19C373.08 456.17 375.43 458.6 376.15 461.1C376.39 461.94 376.44 462.83 376.27 463.69C374.95 470.26 378.67 474.27 379.15 471.94C379.6 469.75 380.31 455.93 379.71 454.42Z" fill="#EF9292"/>
<path d="M186.64 440.31C181.46 439.4 160.2 427.43 144.86 415.62C141.57 413.09 138.54 410.6 135.99 408.27C121.55 395.12 119.39 399.95 119.39 399.95L120.88 413.24C121.11 425.99 118.96 438.79 117.03 451.35C116.28 456.23 115.49 461.11 114.83 466.01C114.2 470.66 114.08 475.08 114.08 479.77C114.08 484.46 112.57 488.65 110.49 492.8C107.35 499.06 103.4 504.88 99.88 510.93C98.72 512.93 97.59 514.95 96.55 517.02C95.17 519.79 94.47 522.35 94.25 524.69C93.36 533.78 99.58 539.29 99.58 539.29C103.03 536.21 105.6 532.33 108.5 528.78C113.93 522.14 121.27 517.32 128.53 512.9C133.68 509.77 138.78 506.4 144.51 504.42C147.72 503.31 151.09 502.75 154.47 502.45C157.62 502.17 160.8 502.24 163.94 502.65C165.23 502.82 166.5 503.05 167.77 503.33C168.72 503.54 170.29 504.28 171.2 503.59C172.45 502.64 172.76 500.8 173.23 499.4C175.58 492.37 177.96 485.4 179.48 478.13C180.44 473.53 181.15 468.87 181.64 464.14C182.09 459.74 182.54 455.33 182.99 450.93C183 450.87 183.02 450.81 183.03 450.76L183.78 451.25L185.73 452.52C188.06 449.47 190.1 446.47 191.88 443.56C190.16 442.32 188.69 440.66 186.64 440.31Z" fill="#EAC8C7"/>
<path d="M224.68 397.47C224.68 397.47 224.6 397.63 224.45 397.93C223.63 399.53 220.78 405.11 217.68 410.75C217.04 411.92 216.38 413.1 215.74 414.24L215.72 414.28L215.6 414.49C214.46 416.5 213.35 418.39 212.35 419.98C212.35 419.99 212.35 419.99 212.35 419.99C212.33 420.01 212.31 420.04 212.3 420.06C211.99 419.93 211.7 419.8 211.42 419.66C211.41 419.66 211.41 419.66 211.41 419.66C210.78 419.35 210.23 419.01 209.78 418.62C208.53 417.54 207.41 416.39 206.39 415.21C206.35 415.18 206.31 415.14 206.28 415.1C205.12 413.78 204.07 412.4 203.05 411.01C203 410.94 202.94 410.86 202.89 410.79L202.88 410.77C200.89 408.03 199.05 405.23 196.86 402.59L196.85 402.57L195.65 400.93C195.64 400.92 195.63 400.91 195.63 400.91L191.65 395.5C191.79 394.36 191.92 393.21 192.04 392.07C192.11 391.48 192.17 390.89 192.23 390.3C192.31 389.47 192.39 388.65 192.47 387.82C192.56 386.94 192.64 386.07 192.71 385.19C192.81 384.04 192.91 382.9 192.99 381.75C193.4 376.3 192.86 370.88 192.2 365.45C192.17 365.24 192.15 365.02 192.12 364.79C192.12 364.73 192.11 364.68 192.11 364.64C192.09 364.45 192.08 364.35 192.07 364.28C192.06 364.09 192.07 364.09 192 363.56C191.99 363.5 191.99 363.44 191.98 363.38C197.23 368.08 205.17 374.97 212.34 382.37C216.89 387.07 221.13 391.98 224.17 396.66C224.17 396.66 224.17 396.66 224.18 396.67C224.35 396.94 224.52 397.2 224.68 397.47Z" fill="#EAC8C7"/>
<path d="M447.24 399.39L445.26 398.46C443.86 397.8 442.2 398.4 441.54 399.8L403.58 480.36H314.55C313 480.36 311.75 481.61 311.75 483.16V485.35C311.75 486.9 313 488.15 314.55 488.15H406.77C406.85 488.15 406.93 488.13 407.01 488.13C407.08 488.12 407.15 488.12 407.22 488.11C407.38 488.08 407.53 488.04 407.68 487.99C407.69 487.99 407.7 487.99 407.7 487.98C408.5 487.7 409.13 487.07 409.41 486.27L448.59 403.12C449.24 401.71 448.64 400.05 447.24 399.39Z" fill="#B7C6E5"/>
<path d="M164.82 331.13C164.82 331.13 163.85 332.21 161.71 332.63C155.2 333.88 141.76 337.98 135.75 349.13C127.76 363.95 114.36 363.94 107.25 373.63C100.14 383.32 109.38 394.62 105.5 408.63C101.62 422.64 93.5701 445.61 87.7501 477.42C83.2701 501.91 76.2301 516.97 78.5101 531.64C78.5101 531.64 78.5201 531.75 78.5501 531.96C78.7601 533.52 79.7901 540.54 82.1801 544.75C82.5201 545.36 82.8901 545.9 83.2901 546.37C82.7101 546.48 82.1601 546.57 81.6401 546.65C79.7601 546.94 78.4401 547.06 78.4401 547.06C75.0101 543.3 73.1801 533.49 72.5601 529.34C72.5101 529.02 72.4601 528.74 72.4301 528.49C72.4101 528.39 72.4001 528.28 72.3801 528.17C72.3201 527.7 72.2801 527.42 72.2801 527.42L72.2901 527.43C71.8401 523.62 71.9301 519.7 72.1201 515.89C72.1801 514.49 72.2801 513.08 72.4101 511.69C73.0601 504.41 74.4101 497.22 75.8401 490.05C80.2601 467.66 86.4701 446.07 86.7301 423.08C86.8301 413.55 86.4001 404.04 85.9001 394.53C85.4201 385.37 90.0601 377.17 95.7501 370.35C101.34 363.64 106.66 356.52 112.59 350.1C124.36 337.37 136.64 333.79 157.81 326.56C158.08 326.47 158.35 326.37 158.62 326.28C158.87 326.2 159.13 326.22 159.38 326.31C159.76 326.44 160.12 326.73 160.39 327.03L164.82 331.13Z" fill="#EAC8C7"/>
<path d="M344.37 473.75L362.31 470.09C362.31 470.09 363.5 469.77 364.3 470.09C365.1 470.41 365.11 470.41 365.11 470.41C365.11 470.41 372.76 474.61 372.87 475.21C372.98 475.8 373.46 478.11 366.3 474.13C366.3 474.13 365.01 473.62 364.09 473.68C363.17 473.74 357.99 476.53 357.99 476.53L350.78 477.42L344.37 473.75Z" fill="#D65B56"/>
<path d="M215.86 413.79L212.42 419.66C212.26 419.57 212.1 419.48 211.94 419.38C210.73 418.65 207.76 415.74 205.74 413.37L204.05 411.01C204 410.94 203.94 410.86 203.89 410.79L203.88 410.77L199 403.69C203.97 408.13 215.86 413.79 215.86 413.79Z" fill="#D3A7A7"/>
<path d="M342.04 488.14C342.04 488.14 348.17 479.35 352.16 478.81C353.9 478.57 355.81 479.17 357.46 479.66C359.71 480.32 361.91 481.16 364.07 482.05C365.53 482.65 366.99 483.3 368.4 484.01C369.38 484.5 370.41 484.89 371.31 485.52C371.76 485.84 372.05 486.13 372.18 486.67C372.22 486.82 372.32 488.29 372.26 488.29C372.26 488.3 342.04 488.14 342.04 488.14Z" fill="#EBEBF7"/>
<path d="M373.03 483.51C372.59 482.73 370.13 480.93 367.48 479.08C365.19 477.49 362.75 475.85 361.37 474.79C360.88 474.42 360.51 474.11 360.35 473.91C359.15 472.5 358.01 472.35 358.01 472.35C358.01 472.35 355.61 472.24 352.18 472.16C344.99 471.98 333.28 471.89 329.45 473.05C325.47 474.25 317.23 471 312.69 468.95C310.77 468.09 309.51 467.45 309.51 467.45C308.7 466.95 307.88 466.46 307.07 465.97C304.23 464.28 301.35 462.64 298.44 461.05L298.43 461.04C298.42 461.04 298.42 461.04 298.41 461.04C282.31 452.23 265.25 444.86 248.61 437.36C244.97 435.71 241.31 434.09 237.66 432.47C235.06 431.32 232.45 430.39 229.94 429.03C227.49 427.69 225.1 426.23 222.67 424.85C220.88 423.83 219.07 422.85 217.2 421.99C215.61 421.26 213.95 420.54 212.42 419.66C212.26 419.57 212.1 419.48 211.94 419.38C210.73 418.65 207.76 415.74 205.74 413.37C204.89 412.37 204.2 411.47 203.89 410.86C203.86 411.21 203.71 412.92 203.17 415.65C202.67 418.08 201.43 420.94 200.13 424.76C200.05 425 199.72 425.69 199.63 425.95C198.93 427.94 197.52 429.67 196.51 431.95C194.96 435.45 192.56 438.47 190.14 442.44C190.14 442.44 209.87 458.14 219.51 458.14C229.15 458.14 240.01 456.06 251.51 461.64C263.01 467.22 265.13 467.89 265.13 467.89C265.13 467.89 273.63 472.62 287.13 472.62C300.63 472.63 310.76 474.94 320.26 479.1C329.76 483.27 351.98 481.16 351.98 481.16C352 481.15 352.03 481.13 352.05 481.12C352.06 481.11 352.07 481.11 352.07 481.11C353.25 480.45 354.55 479.98 356.09 479.88C358.19 479.74 363.29 483.32 365.93 484.22C367.06 484.6 368.68 484.84 370.11 484.85C372.03 484.87 373.59 484.48 373.03 483.51Z" fill="#EF9292"/>
<path d="M226.69 263.21C226.69 263.21 217.8 269.56 217.28 275.26C216.76 280.96 212.36 285.52 212.03 288.78C211.7 292.04 206.33 297.58 206.33 300.59C206.33 303.6 204.09 314.93 209.12 321.64C214.15 328.36 230 336.54 233.47 337.09C236.95 337.64 238.61 338.68 239.82 335.96C241.02 333.24 248.11 313.05 251.04 307.76C253.97 302.47 259.26 300.19 258.37 295.95C257.47 291.71 245.99 259.55 226.69 263.21Z" fill="#EF9292"/>
<path d="M204.05 411.01C204 410.94 203.94 410.86 203.88 410.77C203.14 409.7 202.4 408.63 201.66 407.56C200.04 405.21 198.35 402.91 196.63 400.63C195.94 399.71 195.29 398.73 194.57 397.83C193.91 397.01 193.11 396.26 192.83 395.22C192.43 393.73 193.08 391.82 193.23 390.3C193.31 389.47 193.39 388.65 193.47 387.82C193.56 386.94 193.64 386.07 193.71 385.19C193.81 384.04 193.9 382.9 193.99 381.75C194.4 376.3 193.86 370.88 193.2 365.45C193.17 365.24 193.15 365.02 193.12 364.79C193.12 364.73 193.11 364.68 193.11 364.64C193.09 364.52 193.08 364.4 193.07 364.28C193.05 364.05 193.02 363.81 193 363.56C192.99 363.5 192.99 363.44 192.98 363.38C192.93 362.89 192.88 362.38 192.81 361.86C192.61 360.23 192.3 358.53 191.73 357.08C191.37 356.14 190.89 355.3 190.24 354.66L173.47 339.14L164.82 331.13C164.82 331.13 163.48 331.26 161.34 331.67C161.14 331.71 160.93 331.75 160.71 331.8C153.97 333.17 140.74 337.17 134.92 347.98C126.93 362.8 113.36 362.81 106.24 372.51C99.13 382.2 107.54 394.27 103.66 408.28C99.78 422.29 90.72 445.34 84.9 477.14C80.42 501.63 75.58 516.96 77.87 531.63C77.87 531.63 77.93 532.59 77.96 532.8C78.17 534.36 77.93 541.27 80.33 545.48C80.67 546.08 82.89 545.9 83.29 546.36C87.77 545.81 91.11 544.85 95.04 542.57C95.06 542.56 95.07 542.56 95.08 542.55C95.21 542.47 95.34 542.39 95.48 542.31C97.01 541.48 98.41 540.52 99.47 539.41C99.52 539.36 99.55 539.32 99.57 539.28C99.31 538.95 94.85 533.14 95.71 524.31C95.93 521.97 96.78 520.46 98.17 517.69C104.96 504.12 118.04 488.86 116.42 478.62C115.08 470.07 122.27 434.93 121.88 413.06L121.01 402.2C121.01 402.2 120.21 396.79 135.5 408.82C138.21 410.95 141.08 413.79 144.38 416.32C153.3 423.2 163.08 428.95 173 434.26C179.11 437.53 185.35 441.18 191.86 443.58C194.28 439.61 196.22 435.81 197.77 432.31C198.78 430.03 199.62 427.88 200.32 425.89C200.41 425.63 200.5 425.38 200.58 425.14C201.91 421.24 203.09 418.47 203.98 416.6C204.3 415.93 204.58 415.38 204.82 414.93C205.41 413.84 205.74 413.37 205.74 413.37L204.05 411.01Z" fill="#EFEFEF"/>
<path d="M351.97 481.15C350.76 481.84 349.68 482.72 348.59 483.59C346.91 484.94 345.22 486.28 343.05 486.88C339.44 487.87 335.59 485.81 331.89 485.25C312.44 482.32 293.01 479.32 273.59 476.32C268.22 475.5 262.85 474.67 257.49 473.83C254.1 473.32 250.71 472.79 247.33 472.27C245.94 472.06 244.56 471.84 243.17 471.62C239.2 471.01 235.24 470.4 231.28 469.78C224.15 468.67 216.75 468.71 209.87 466.31C203.9 464.23 198.34 460.97 193.11 457.45C190.84 455.92 188.34 454.26 185.71 452.53L191.86 443.58C191.86 443.58 210.47 457.13 220.11 457.13C229.75 457.13 241.25 455.47 252.75 461.05C264.25 466.63 264.25 466.63 264.25 466.63C264.25 466.63 273.25 471.37 286.75 471.37C300.25 471.38 311.25 474.3 320.75 478.46C330.25 482.63 351.97 481.15 351.97 481.15Z" fill="#D65B56"/>
<path d="M361.4 452.98C360.67 452.45 359.9 451.98 359.09 451.58L359.07 451.56H359.06C354.04 449.05 347.68 448.93 341.98 449.9C334.39 451.2 326.99 454.03 319.3 453.88C310.97 453.73 303.02 450.38 294.75 449.51C286.76 448.67 278.55 448.64 270.88 445.96C262.03 442.87 255.07 436.1 247.56 430.49C238.56 423.77 228.47 418.58 217.92 414.73L217.93 414.72L217 414.38L215.86 413.79L212.42 419.66L213.89 420.76C214.11 420.96 214.39 421.16 214.7 421.37C216.34 422.43 218.98 423.51 219.97 424.04C220.12 424.12 220.26 424.2 220.41 424.27C224.49 426.49 228.63 428.58 232.8 430.6C234.14 431.25 235.48 431.89 236.82 432.51C246.47 437.06 256.29 441.26 266.03 445.62C266.43 445.8 266.83 445.98 267.23 446.16C275.52 449.88 283.75 453.73 291.77 458C292.16 458.2 292.54 458.41 292.92 458.61C295.63 460.07 298.31 461.57 300.96 463.14C301.96 463.73 302.97 464.34 304.04 464.77C304.66 465.02 305.29 465.22 305.95 465.32C307.54 465.56 309.15 465.25 310.73 464.94C311.24 464.84 311.74 464.74 312.25 464.64C320.79 462.97 329.75 461.28 337.76 457.86C337.85 457.83 337.95 457.79 338.04 457.74C339.51 457.11 340.94 456.42 342.33 455.66C345.09 454.16 347.55 452.15 350.59 452.96C350.65 452.98 350.71 453 350.76 453.02C350.82 453.04 350.87 453.06 350.93 453.08L350.91 453.11C352.33 453.99 353.69 454.97 354.98 456.05C355.66 456.61 356.35 457.18 357 457.77C357.73 458.43 358.45 459.16 359.37 459.56C359.51 459.62 359.66 459.68 359.81 459.72C361.21 460.12 362.55 459.46 363.76 458.83C364.79 458.3 365.84 457.72 366.92 457.23C367.18 457.11 367.46 456.98 367.75 456.86L361.4 452.98Z" fill="#D65B56"/>
<path d="M205.45 285.9C204 285.54 202.42 285.81 201.22 286.62C199.65 287.69 198.52 290.3 197.51 291.95C195.64 295 193.7 297.3 194.25 301.04C194.85 305.09 191.22 308.02 187.19 309.4C186.43 309.65 185.43 309.89 184.33 310.07C184.33 310.07 183.77 311.17 182.29 312.33C177.99 315.69 167.64 326.23 158.98 326.23C159.36 326.36 160.13 326.73 160.4 327.03L164.82 331.12C165.11 331.38 167.02 330.85 167.36 330.79C169.24 330.44 171.11 329.87 172.82 329C174.75 328.01 176.18 326.21 178.04 325.09C185.14 320.83 193.41 318 196.17 309.46C198.67 301.71 203.38 295.06 207.45 286.42C206.89 286.08 206.08 286.05 205.45 285.9Z" fill="#D65B56"/>
<path d="M209.94 292.09C209.92 292.16 209.83 292.41 209.81 292.48C209.13 294.35 207.97 295.63 206.75 297.06C205.36 298.68 205.18 300.43 204.64 302.46C203.22 307.85 202.19 313.41 202.26 318.99C202.27 319.44 202.24 319.88 202.2 320.32C202.19 320.46 202.17 320.59 202.15 320.73C202.15 320.8 202.15 320.86 202.13 320.93C201.96 322.58 201.76 324.16 202.68 325.57C202.9 325.92 204.07 329.55 203.69 331.28C203.58 331.8 203.33 332.14 202.89 332.19C202.89 332.19 199.94 333.47 196.77 336.13C196.13 336.66 195.47 337.25 194.83 337.9C194.34 338.4 193.92 339.15 193.57 340.07C193.27 340.87 193.02 341.79 192.8 342.8C192.77 342.95 192.74 343.1 192.71 343.25C191.83 347.72 191.72 353.6 191.73 357.08C191.37 356.14 190.89 355.3 190.24 354.66L173.47 339.14L164.82 331.13C167.62 330.73 170.56 329.81 172.97 328.33C174.93 327.13 176.54 325.44 178.54 324.26C180.54 323.08 182.64 322.11 184.71 321.08C188.08 319.4 191.46 317.02 193.33 313.65C197.11 306.84 202.3 292.69 207.23 286.72C207.23 286.71 207.23 286.71 207.23 286.71C207.24 286.7 207.25 286.68 207.27 286.66C207.3 286.62 207.33 286.59 207.36 286.56C207.37 286.56 207.37 286.55 207.38 286.54C207.38 286.53 207.38 286.51 207.39 286.5L207.56 286.2C209.04 287.08 210.33 288.95 210.31 290.84C210.3 291.28 210.05 291.72 209.94 292.09Z" fill="#EF9292"/>
<path d="M235.6 244.44C237.86 242.54 240.39 240.84 241.53 237.84C242.8 234.48 239.38 228.03 235.17 223.98C230.97 219.91 225.7 224.54 221.66 229.26C219.13 232.22 218.69 233.68 220.29 236.78C221.36 238.85 223.37 242.05 224.05 245.01C223.99 244.99 223.94 244.95 223.88 244.93C222.83 244.49 221.66 244.28 220.55 244.39C219.44 244.53 218.38 244.92 217.62 245.65C219.68 245.38 221.41 246 222.77 246.99C222.95 247.11 223.11 247.24 223.27 247.38C223.43 247.52 223.6 247.64 223.75 247.8C223.87 247.92 223.99 248.04 224.12 248.16C224.08 248.33 224.03 248.5 223.96 248.67C223.83 249.02 223.66 249.35 223.42 249.67C222.18 251.34 218.38 252.24 216.64 252.33C214.65 252.43 212.23 252.25 210.35 253.05C208.4 253.88 207.37 255.73 206.01 257.25C204.24 259.24 201.87 260.57 199.89 262.35C196.99 264.95 195.19 268.4 194.43 272.2C193.61 276.36 194.62 280.86 193.1 284.88C193.07 284.97 193.03 285.07 192.99 285.16C192.28 286.9 191.08 288.39 190.1 290C187.91 293.57 188.59 297.66 187.51 301.57C186.99 303.45 184.88 305.61 183.55 307.02C181.76 308.92 177.78 310.67 176.4 310.25C177.8 310.75 181.37 310.57 184.31 310.07C185.4 309.89 186.4 309.65 187.16 309.4C191.2 308.02 194.82 305.09 194.22 301.04C193.67 297.3 195.61 295 197.48 291.95C198.49 290.3 199.61 287.7 201.19 286.62C202.39 285.81 203.94 285.65 205.4 286.01C206.03 286.17 206.65 286.41 207.22 286.73C207.23 286.72 207.24 286.7 207.25 286.68C207.3 286.6 207.57 286.11 207.63 286.02C208.59 284.54 210.03 283.6 210.97 282.07C213.27 278.34 213.96 273.94 214.84 269.71C215.58 266.15 217.39 263.22 220.47 261.32C223.22 259.62 226.39 258.87 229.42 257.84C232.64 256.75 235.63 255.11 238.78 253.84C238.22 253.35 237.57 252.95 236.79 252.69C235.47 252.23 233.52 251.79 232.59 250.52C233.25 250.39 233.91 250.22 234.53 249.98C236.53 249.18 238.32 247.85 239.4 246.06C237.5 246.89 235.7 247.42 233.9 247.7C233.38 247.77 232.87 247.82 232.37 247.84C233.03 246.44 234.65 245.23 235.6 244.44Z" fill="black"/>
<path d="M209.94 292.09C209.92 292.16 209.83 292.41 209.81 292.48C209.13 294.35 207.97 295.63 206.75 297.06C205.36 298.68 205.18 300.43 204.64 302.46C203.22 307.85 202.19 313.41 202.26 318.99C202.27 319.44 202.24 319.88 202.2 320.32C202.19 320.46 202.17 320.59 202.15 320.73C202.15 320.8 202.15 320.86 202.13 320.93C201.96 322.58 201.76 324.16 202.68 325.57C202.9 325.92 204.07 329.55 203.69 331.28C203.58 331.8 203.33 332.14 202.89 332.19C202.89 332.19 199.94 333.47 196.77 336.13C196.13 336.66 195.47 337.25 194.83 337.9C194.34 338.4 193.92 339.15 193.57 340.07C193.27 340.87 193.02 341.79 192.8 342.8C192.77 342.95 192.74 343.1 192.71 343.25C191.83 347.72 191.72 353.6 191.73 357.08C191.37 356.14 190.89 355.3 190.24 354.66L173.47 339.14L164.82 331.13C167.62 330.73 170.56 329.81 172.97 328.33C174.93 327.13 176.54 325.44 178.54 324.26C180.54 323.08 182.64 322.11 184.71 321.08C188.08 319.4 191.46 317.02 193.33 313.65C197.11 306.84 202.3 292.69 207.23 286.72C207.23 286.71 207.23 286.71 207.23 286.71C207.24 286.7 207.25 286.68 207.27 286.66C207.3 286.62 207.33 286.59 207.36 286.56C207.37 286.56 207.37 286.55 207.38 286.54C207.38 286.53 207.38 286.51 207.39 286.5L207.56 286.2C209.04 287.08 210.33 288.95 210.31 290.84C210.3 291.28 210.05 291.72 209.94 292.09Z" fill="#EF9292"/>
<path d="M233.47 346.72C233.33 346.94 233.19 347.15 233.05 347.35C231.12 350.2 228.73 352.71 225.68 354.38C225.12 354.69 224.65 355 224.25 355.32C223.94 355.15 223.63 354.96 223.33 354.76C220.76 353.07 218.39 350.64 217.01 348.53C216.81 348.24 216.64 347.95 216.49 347.67C212.21 339.81 208.2 339.13 204.53 334.4C204.34 334.17 204.17 333.94 204 333.71C203.61 333.2 203.24 332.7 202.89 332.19C202.5 331.02 202.17 329.57 201.89 327.98C201.83 327.66 201.78 327.34 201.73 327.01C201.7 326.83 201.67 326.65 201.65 326.47C201.63 326.38 201.62 326.29 201.61 326.2C201.58 325.99 201.55 325.78 201.52 325.57C201.41 324.73 201.32 323.86 201.25 322.98C201.22 322.56 201.19 322.15 201.17 321.73C201.07 319.98 201.05 318.24 201.12 316.6C201.12 316.61 201.12 316.62 201.13 316.63C201.13 316.65 201.14 316.68 201.14 316.7C201.15 316.77 201.16 316.83 201.18 316.9C201.33 317.46 201.68 318.76 202.2 320.32C202.22 320.41 202.26 320.5 202.28 320.59C203.39 323.81 205.22 327.92 207.58 328.68C211.57 329.97 218.22 337.35 221.62 343.07C222.46 344.47 223.3 344.52 227.16 345.47C229.06 345.94 231.21 346.35 233.47 346.72Z" fill="#0F0833"/>
<path d="M259.11 292.36C258.1 294.34 257.09 295.62 255.93 296.82C255.79 296.68 255.66 296.54 255.55 296.38C255.49 296.31 255.44 296.25 255.4 296.18C255.31 296.07 255.24 295.96 255.16 295.85C254.67 295.13 254.26 294.32 253.91 293.48C253.53 292.57 253.23 291.63 252.98 290.78C252.89 290.46 252.79 290.16 252.67 289.86C252.61 289.71 252.55 289.56 252.48 289.41C252.42 289.26 252.34 289.12 252.27 288.97C252.19 288.8 252.11 288.64 252.02 288.48C251.93 288.32 251.84 288.16 251.74 288.01C251.66 287.89 251.59 287.77 251.51 287.66C251.49 287.62 251.46 287.59 251.44 287.55C251.34 287.4 251.23 287.25 251.12 287.1C250.75 286.62 250.35 286.16 249.91 285.73C249.77 285.59 249.64 285.46 249.49 285.35C249.06 284.95 248.61 284.59 248.13 284.26C245.44 282.4 242.38 283.06 239.51 281.61C237.88 280.77 236.98 278.85 235.89 277.35C234.32 275.16 227.43 270.3 225.07 272.64C223.25 274.44 223.89 279.11 224.05 281.69C224.06 281.85 224.07 282 224.08 282.16C224.35 288.79 218.62 285.74 215.38 287.1C212.63 288.27 213.42 292.46 212.7 294.81C212.64 295 212.58 295.18 212.5 295.37C212.48 295.43 212.45 295.49 212.43 295.55C211.22 298.72 208.74 301.12 208.12 304.61C208.09 304.79 208.06 304.96 208.04 305.14C207.6 308 207.88 310.34 208.65 312.4C208.65 312.41 208.66 312.41 208.66 312.42C209.92 315.79 212.44 318.37 215.19 320.99C216.64 322.37 218.15 323.76 219.59 325.27C219.61 325.3 219.63 325.32 219.66 325.35C222.66 328.53 225.92 330.45 230.02 331.75C230.29 331.84 230.57 331.92 230.85 332.01C230.95 332.04 231.06 332.06 231.17 332.1C231.81 332.28 232.49 332.46 233.22 332.63C233.28 332.65 233.35 332.67 233.41 332.68C234.02 332.83 234.67 332.97 235.35 333.11C235.8 333.21 236.26 333.3 236.74 333.4C236.8 333.42 236.86 333.42 236.91 333.44C237.02 333.47 237.13 333.51 237.23 333.56C237.95 333.83 238.58 334.37 239.12 335.02C238.5 336.47 237.88 337.91 237.28 339.32C236.21 341.83 234.99 344.37 233.47 346.72C233.33 346.94 233.19 347.15 233.05 347.35C230.83 347.05 228.76 346.5 226.92 346.05C224.25 345.39 221.12 344.44 219.1 342.49C217.07 340.52 215.53 338.06 213.81 335.83C212.3 333.87 210.69 331.71 208.53 330.42C208.31 330.28 208.08 330.17 207.85 330.06C206.19 329.26 205.22 328.4 204.34 326.78C203.59 325.39 203.04 323.89 202.57 322.39C202.42 321.91 202.27 321.42 202.13 320.93C202.12 320.89 202.1 320.84 202.09 320.79C201.73 319.51 201.42 318.21 201.18 316.9C201.16 316.83 201.15 316.77 201.14 316.7C201.14 316.68 201.13 316.65 201.13 316.63C201.12 316.62 201.12 316.61 201.12 316.6C201.19 315.11 201.34 313.71 201.58 312.48C201.62 312.28 201.67 312.1 201.71 311.91C201.78 311.64 201.83 311.38 201.87 311.11C201.96 310.63 202.03 310.15 202.08 309.67C202.1 309.51 202.12 309.35 202.13 309.19C202.55 304.77 201.95 300.43 205.43 296.91C205.48 296.85 205.54 296.8 205.6 296.74C205.61 296.73 205.63 296.71 205.64 296.69C207.09 295.31 208.92 294.22 209.57 292.36C209.59 292.29 209.61 292.22 209.63 292.15C209.74 291.78 209.8 291.38 209.81 290.94C209.83 289.08 208.74 287.62 207.29 286.75C207.28 286.74 207.26 286.73 207.25 286.73V286.72C207.24 286.72 207.24 286.71 207.23 286.71C207.24 286.7 207.25 286.68 207.27 286.66C207.33 286.58 207.38 286.5 207.42 286.41C207.55 286.2 207.67 285.99 207.8 285.78C207.99 285.49 208.18 285.21 208.39 284.93C208.54 284.75 208.68 284.57 208.82 284.38C208.96 284.2 209.1 284.02 209.24 283.84C209.37 283.65 209.5 283.47 209.62 283.28C210.39 282.07 211.08 280.8 211.67 279.49C212.84 276.87 213.63 274.05 213.75 271.18C214.11 262.95 222.72 256.34 228.42 256.34C230.93 256.34 234.96 255.39 238.81 253.83C239.97 254.82 240.76 256.18 241.65 257.61C243.3 260.27 245.8 261.77 248.59 262.75C253.35 264.43 257.22 265.35 260.37 269.54C260.46 269.66 260.55 269.78 260.64 269.91C260.92 270.71 261.18 271.52 261.43 272.33C263.37 278.67 262.11 286.51 259.11 292.36Z" fill="black"/>
<path d="M238.4 347.44C237.47 348.72 236.46 349.93 235.49 351.2C234.64 352.33 232.69 355.43 231.51 356.16C229.47 357.4 226.8 356.79 224.25 355.32C224.65 355 225.12 354.69 225.68 354.38C228.73 352.71 231.12 350.2 233.05 347.35C234.76 347.58 236.56 347.67 238.4 347.44Z" fill="black"/>
<path d="M240.71 337.55C240.63 337.4 240.56 337.24 240.47 337.09C240.11 336.38 239.65 335.64 239.12 335.02C238.5 336.47 237.88 337.91 237.28 339.32C236.21 341.83 234.99 344.37 233.47 346.72C233.33 346.94 233.19 347.15 233.05 347.35C234.76 347.58 236.56 347.67 238.4 347.44C238.87 346.8 239.33 346.15 239.74 345.46C241.25 343 242.02 340.26 240.71 337.55Z" fill="black"/>
<path d="M272.28 292.95C272.27 293.19 272.19 293.45 272.13 293.65C272 294.06 271.8 294.44 271.55 294.79C271.04 295.51 270.35 296.1 269.61 296.59C269.12 296.91 268.6 297.19 268.06 297.41C265.81 298.35 263.19 299.85 260.69 299.55C260.15 299.49 259.63 299.35 259.11 299.14C259.09 299.13 259.07 299.12 259.05 299.11C258.14 298.67 257.3 298.03 256.53 297.4C256.4 297.3 256.28 297.19 256.16 297.07L255.98 296.89C255.96 296.87 255.94 296.85 255.93 296.83C257.09 295.63 258.1 294.35 259.11 292.37C262.11 286.52 263.37 278.68 261.43 272.34C261.18 271.53 260.92 270.72 260.64 269.92C261.95 271.71 263.05 273.68 263.87 275.77C264.78 278.06 265.34 280.49 265.46 282.95C265.46 283.01 265.47 283.08 265.47 283.14C265.54 285.12 265.57 287.31 266.6 289.03C267.65 290.78 269.54 291.59 271.43 292.09C271.67 292.15 271.95 292.21 272.12 292.41C272.26 292.54 272.29 292.74 272.28 292.95Z" fill="black"/>
<path d="M259.11 299.13C259.1 299.17 259.08 299.21 259.06 299.25C258.29 300.99 256.59 304.5 254.8 306.39C252.36 308.95 254.19 316.09 254.14 319.58C254.06 325.07 250.01 321.04 246.94 324.64C244.44 327.57 241.49 334.57 240.47 337.09C240.11 336.38 239.65 335.64 239.12 335.02C241.52 329.38 243.88 323.49 245.01 317.63C245.92 312.88 245.81 308.12 249 304.13C252.03 300.34 254.16 298.67 255.93 296.82C255.94 296.84 255.96 296.86 255.98 296.88L256.16 297.06C256.97 297.91 257.97 298.65 259.05 299.1C259.07 299.11 259.09 299.12 259.11 299.13Z" fill="#FFD8D7"/>
</svg>
