<svg width="320" height="256" viewBox="0 0 320 256" fill="none" xmlns="http://www.w3.org/2000/svg">
<path d="M160 192C134.4 192 108.8 169.6 96 160C32 115.2 12.8 99.2 0 89.6V224C0 241.67 14.33 256 32 256H288C305.67 256 320 241.67 320 224V89.6C307.2 99.2 288 115.2 224 160C211.2 169.6 185.6 192 160 192ZM288 0H32C14.33 0 0 14.33 0 32V48C25.6 67.2 22.4 67.2 115.2 134.4C124.8 140.8 144 160 160 160C176 160 195.2 140.8 204.8 137.6C297.6 70.4 294.4 70.4 320 51.2V32C320 14.33 305.67 0 288 0Z" fill="black"/>
</svg>
